<svg width="165" height="40" viewBox="0 0 165 40" fill="none">
<mask id="mask0" mask-type="alpha" maskUnits="userSpaceOnUse" x="0" y="0" width="31" height="22">
<path d="M0.0334473 16.7418L21.0726 16.9117C21.0726 16.9117 25.7161 17.5016 29.6826 20.9854C29.9083 21.1821 30.791 20.9854 30.791 20.9854L30.6837 0.0915527L0.0334473 0.127307V16.7418Z" fill="white"/>
</mask>
<g mask="url(#mask0)">
<path fill-rule="evenodd" clip-rule="evenodd" d="M26.3216 4.79782C23.8188 2.73748 20.3753 1.70508 15.9909 1.70508C10.1295 1.70508 7.53058 1.70508 5.06801 1.70508V3.23134C5.06801 3.23134 10.9965 3.23134 15.7898 3.23134C19.5172 3.23134 22.8915 4.00005 24.9518 5.77882C27.0121 7.55983 28.5742 10.2101 28.5742 13.4816C28.5742 16.6392 27.2222 18.9788 25.0792 20.7487C22.9362 22.5185 19.1149 23.2984 15.2892 23.2984C10.7239 23.2984 2.97192 23.2984 2.97192 23.2984V24.8246C2.97192 24.8246 13.4591 24.8224 15.3742 24.8224C19.9887 24.8224 23.5931 23.819 26.1876 21.8168C28.782 19.8123 30.0781 16.9945 30.0781 13.3587C30.0781 9.71402 28.8267 6.86038 26.3216 4.79782Z" fill="#1C1E1D"/>
<path fill-rule="evenodd" clip-rule="evenodd" d="M25.3965 7.01005C23.839 5.82793 22.0491 4.87598 16.9854 4.87598C11.5239 4.87821 10.8558 4.87598 8.56079 4.87598V6.36424C8.56079 6.36424 12.3306 6.31508 16.7977 6.36424C21.115 6.40894 22.6993 6.89609 24.1519 7.97095C26.0111 9.34525 27.1641 11.0413 27.1641 13.4145C27.1641 15.7028 25.9932 17.3229 24.125 18.6972C22.2144 20.105 19.2937 20.1207 18.1049 20.1475C17.6558 20.1587 11.8502 20.1475 11.8502 20.1475V21.6357C11.8502 21.6357 14.7396 21.676 16.525 21.6335C20.6234 21.5419 23.0546 21.2983 25.3183 19.6156C27.4435 18.0402 28.5675 15.9598 28.5675 13.3251C28.5675 9.85028 26.8289 8.09832 25.3965 7.01005Z" fill="#1C1E1D"/>
<path fill-rule="evenodd" clip-rule="evenodd" d="M24.6436 8.97413C23.4749 8.24117 22.4492 7.74731 17.6112 7.74731C12.695 7.74731 13.6223 7.74731 11.5553 7.74731V8.72609C11.5553 8.72609 13.4235 8.72609 17.4436 8.72609C21.7296 8.72609 23.3542 9.4881 23.8458 9.78977C24.8089 10.3797 26.0782 11.3406 26.0782 13.2982C26.0782 14.5495 25.3385 16.1205 24.2458 16.7373C23.2492 17.2982 21.4279 17.8009 18.219 17.8009C17.8145 17.8009 -1.56201 17.8009 -1.56201 17.8009V18.7797C-1.56201 18.7797 16.6838 18.7797 18.2927 18.7797C22.1609 18.7797 23.4883 18.3507 24.8514 17.5976C26.219 16.8445 27.1307 15.2959 27.1307 13.3071C27.1307 11.0859 25.8905 9.75402 24.6436 8.97413Z" fill="#1C1E1D"/>
</g>
<path fill-rule="evenodd" clip-rule="evenodd" d="M28.4938 19.772C25.991 17.7094 22.5452 16.6792 18.163 16.6792C12.2993 16.6792 13.3206 16.677 10.8558 16.677V18.2033C10.8558 18.2033 13.1664 18.2033 17.9597 18.2033C21.6871 18.2033 25.0636 18.972 27.1239 20.7507C29.1843 22.5317 30.744 25.182 30.744 28.4558C30.744 31.6111 29.3943 33.9507 27.2513 35.7206C25.1083 37.4904 21.2848 38.2703 17.4591 38.2703C12.896 38.2703 5.14404 38.2703 5.14404 38.2703V39.7965C5.14404 39.7965 15.629 39.7943 17.5463 39.7943C22.1608 39.7943 25.763 38.7932 28.3575 36.7887C30.9519 34.7865 32.2502 31.9664 32.2502 28.3329C32.2502 24.6859 30.9988 21.8323 28.4938 19.772Z" fill="#1C1E1D"/>
<path fill-rule="evenodd" clip-rule="evenodd" d="M27.5688 21.9822C26.0112 20.8023 24.2213 19.8481 19.1576 19.8481C13.6939 19.8504 10.0001 19.8481 7.70508 19.8481V21.3364C7.70508 21.3364 14.5006 21.2873 18.9699 21.3364C23.2872 21.3811 24.8693 21.8683 26.3218 22.9431C28.1833 24.3197 29.3364 26.0135 29.3364 28.3867C29.3364 30.675 28.1654 32.2951 26.2973 33.6716C24.3866 35.0772 21.466 35.0951 20.2749 35.1219C19.8257 35.1308 14.0202 35.1219 14.0202 35.1219V36.6079C14.0202 36.6079 16.9095 36.6481 18.6973 36.6079C22.7933 36.5141 25.2269 36.2705 27.4906 34.59C29.6135 33.0124 30.7375 30.9319 30.7375 28.2973C30.7375 24.8247 29.0012 23.0705 27.5688 21.9822Z" fill="#1C1E1D"/>
<path fill-rule="evenodd" clip-rule="evenodd" d="M10.1562 27.0322H20.8892V26.2009H10.1562V27.0322Z" fill="#1C1E1D"/>
<path fill-rule="evenodd" clip-rule="evenodd" d="M14.5833 29.9394H20.8268V29.2244H14.5833V29.9394Z" fill="#1C1E1D"/>
<path fill-rule="evenodd" clip-rule="evenodd" d="M5.14404 27.0322H8.32393V26.2009H5.14404V27.0322Z" fill="#1C1E1D"/>
<path fill-rule="evenodd" clip-rule="evenodd" d="M3.16187 29.9975H12.82V29.1663H3.16187V29.9975Z" fill="#1C1E1D"/>
<path fill-rule="evenodd" clip-rule="evenodd" d="M5.54175 8.66138H9.30488V7.97534H5.54175V8.66138Z" fill="#1C1E1D"/>
<path fill-rule="evenodd" clip-rule="evenodd" d="M2.92065 14.2257H11.5396V13.428H2.92065V14.2257Z" fill="#1C1E1D"/>
<path fill-rule="evenodd" clip-rule="evenodd" d="M3.16187 36.5049H12.2501V35.5083H3.16187V36.5049Z" fill="#1C1E1D"/>
<path fill-rule="evenodd" clip-rule="evenodd" d="M0.895996 39.7363H3.16862V38.2927H0.895996V39.7363Z" fill="#1C1E1D"/>
<path fill-rule="evenodd" clip-rule="evenodd" d="M6.57642 11.79H20.8468V10.9922H6.57642V11.79Z" fill="#1C1E1D"/>
<path fill-rule="evenodd" clip-rule="evenodd" d="M13.7117 14.2257H20.5765V13.428H13.7117V14.2257Z" fill="#1C1E1D"/>
<path fill-rule="evenodd" clip-rule="evenodd" d="M26.8157 24.096C25.6447 23.3876 24.619 22.9116 19.7833 22.9116C14.8671 22.9116 14.1319 22.9116 12.0671 22.9116V23.8569C12.0671 23.8569 15.5933 23.8569 19.6135 23.8569C23.8995 23.8569 25.5263 24.5921 26.0179 24.8848C26.9788 25.4546 28.2503 26.3798 28.2503 28.2703C28.2503 29.4792 27.5107 30.9943 26.4157 31.5887C25.419 32.1317 23.5978 32.6166 20.3889 32.6166C19.9844 32.6166 0.610107 32.6166 0.610107 32.6166V33.5619C0.610107 33.5619 18.8559 33.5597 20.4626 33.5597C24.333 33.5597 25.6604 33.1463 27.0235 32.42C28.3889 31.6915 29.3006 30.1965 29.3006 28.277C29.3006 26.134 28.0626 24.8491 26.8157 24.096Z" fill="#1C1E1D"/>
<path fill-rule="evenodd" clip-rule="evenodd" d="M47.1396 21.9596V30.6568H51.8904C53.9441 30.6568 55.5374 30.2635 56.6703 29.4769C57.8011 28.6903 58.3664 27.611 58.3664 26.2412C58.3664 23.3853 55.9642 21.9596 51.1597 21.9596H47.1396ZM47.1396 11.6065V19.4121H50.7239C52.639 19.4121 54.1452 19.039 55.2424 18.2926C56.3396 17.544 56.8893 16.4915 56.8893 15.1306C56.8893 12.782 54.9787 11.6065 51.1597 11.6065H47.1396ZM43.6401 33.22V9.04565H52.1407C54.7217 9.04565 56.7709 9.55739 58.2837 10.5786C59.7966 11.6021 60.5541 12.9339 60.5541 14.5741C60.5541 15.9462 60.096 17.1373 59.1798 18.1496C58.2636 19.1596 56.9988 19.8792 55.3899 20.306V20.373C57.4033 20.5652 59.0122 21.1797 60.2212 22.2188C61.4301 23.2602 62.0335 24.6121 62.0335 26.2747C62.0335 28.3417 61.1173 30.0177 59.2849 31.2982C57.4502 32.5786 55.1396 33.22 52.3485 33.22H43.6401Z" fill="#1C1E1D"/>
<path fill-rule="evenodd" clip-rule="evenodd" d="M65.9308 33.2199H69.3453V15.9574H65.9308V33.2199ZM67.6805 11.573C67.0682 11.573 66.5475 11.4054 66.1185 11.068C65.6872 10.7305 65.4727 10.3037 65.4727 9.78752C65.4727 9.26908 65.6872 8.84003 66.1185 8.4959C66.5475 8.154 67.0682 7.98193 67.6805 7.98193C68.3039 7.98193 68.8358 8.154 69.2738 8.4959C69.7118 8.84003 69.9285 9.26908 69.9285 9.78752C69.9285 10.2814 69.7118 10.7037 69.2738 11.0501C68.8358 11.3987 68.3039 11.573 67.6805 11.573Z" fill="#1C1E1D"/>
<path fill-rule="evenodd" clip-rule="evenodd" d="M84.449 33.0525C83.6423 33.4122 82.5809 33.591 81.2624 33.591C77.5261 33.591 75.658 31.9061 75.658 28.534V18.3173H71.9932V15.9575H75.658V11.743L79.0747 10.8491V15.9575H84.449V18.3173H79.0747V28.0447C79.0747 29.2022 79.3183 30.029 79.8032 30.5229C80.2904 31.0167 81.0948 31.2648 82.2211 31.2648C83.0814 31.2648 83.8233 31.0748 84.449 30.6905V33.0525Z" fill="#1C1E1D"/>
<path fill-rule="evenodd" clip-rule="evenodd" d="M115.464 33.2201H112.264V18.3016C112.264 17.1217 112.353 15.6804 112.532 13.9731H112.456C112.15 14.9765 111.873 15.6938 111.631 16.1296L102.241 33.2201H100.67L91.3005 16.2525C91.0324 15.7564 90.7575 14.9966 90.4759 13.9731H90.4C90.5028 14.8625 90.5542 16.315 90.5542 18.3307V33.2201H87.448V10.981H91.7028L100.134 26.4893C100.787 27.6782 101.207 28.5675 101.399 29.1575H101.513C102.063 27.9374 102.503 27.0279 102.836 26.4268L111.439 10.981H115.464V33.2201Z" fill="#1C1E1D"/>
<path fill-rule="evenodd" clip-rule="evenodd" d="M132.825 24.4871L127.68 25.0614C126.096 25.2401 124.903 25.5574 124.096 26.0133C123.292 26.4692 122.889 27.2759 122.889 28.4312C122.889 29.2759 123.26 29.9641 124.004 30.4982C124.746 31.0323 125.736 31.2982 126.972 31.2982C128.666 31.2982 130.065 30.8178 131.169 29.8569C132.273 28.896 132.825 27.6803 132.825 26.2077V24.4871ZM136.241 33.22H132.825V30.5228H132.742C131.256 32.5898 129.068 33.6245 126.181 33.6245C124.056 33.6245 122.393 33.1686 121.191 32.2591C119.991 31.3496 119.39 30.1407 119.39 28.6345C119.39 25.41 121.736 23.5329 126.431 23.0033L132.825 22.2792C132.825 19.3452 131.359 17.8792 128.429 17.8792C125.861 17.8792 123.542 18.5876 121.473 20.0021V17.1709C123.569 16.0915 125.987 15.553 128.722 15.553C133.734 15.553 136.241 17.6982 136.241 21.9932V33.22Z" fill="#1C1E1D"/>
<path fill-rule="evenodd" clip-rule="evenodd" d="M152.094 18.7552C151.497 18.3843 150.635 18.1988 149.51 18.1988C148.054 18.1988 146.833 18.7552 145.855 19.8681C144.876 20.9809 144.386 22.4983 144.386 24.42V33.22H140.97V15.9575H144.386V19.515H144.469C144.956 18.2994 145.698 17.3541 146.699 16.6726C147.698 15.9932 148.816 15.6536 150.051 15.6536C150.941 15.6536 151.62 15.7318 152.094 15.8904V18.7552Z" fill="#1C1E1D"/>
<path fill-rule="evenodd" clip-rule="evenodd" d="M163.989 33.0525C163.182 33.4122 162.121 33.591 160.802 33.591C157.066 33.591 155.198 31.9061 155.198 28.534V18.3173H151.533V15.9575H155.198V11.743L158.615 10.8491V15.9575H163.989V18.3173H158.615V28.0447C158.615 29.2022 158.858 30.029 159.343 30.5229C159.83 31.0167 160.635 31.2648 161.761 31.2648C162.621 31.2648 163.363 31.0748 163.989 30.6905V33.0525Z" fill="#1C1E1D"/>
</svg>
