<svg width="16" height="16" viewBox="0 0 16 16" fill="none" xmlns="http://www.w3.org/2000/svg">
<path d="M12.8 2.13333H3.19997C2.61063 2.13333 2.1333 2.61066 2.1333 3.2V12.8C2.1333 13.3893 2.61063 13.8667 3.19997 13.8667H8.5333V9.06666H6.9333V7.46666H8.5333V6.60746C8.5333 4.9808 9.32583 4.26666 10.6778 4.26666C11.3253 4.26666 11.6677 4.31466 11.8298 4.33653V5.86666H10.9077C10.3338 5.86666 10.1333 6.1696 10.1333 6.78293V7.46666H11.8154L11.5872 9.06666H10.1333V13.8667H12.8C13.3893 13.8667 13.8666 13.3893 13.8666 12.8V3.2C13.8666 2.61066 13.3888 2.13333 12.8 2.13333Z" fill="url(#paint0_linear)"/>
<defs>
<linearGradient id="paint0_linear" x1="2.1333" y1="2.13333" x2="15.2867" y2="4.03268" gradientUnits="userSpaceOnUse">
<stop stop-color="#F2BF10"/>
<stop offset="1" stop-color="#F57777"/>
</linearGradient>
</defs>
</svg>
