<svg width="16" height="16" viewBox="0 0 16 16" fill="none" xmlns="http://www.w3.org/2000/svg">
<path d="M3.19997 2.13333C2.61063 2.13333 2.1333 2.61066 2.1333 3.2V12.8C2.1333 13.3893 2.61063 13.8667 3.19997 13.8667H12.8C13.3893 13.8667 13.8666 13.3893 13.8666 12.8V3.2C13.8666 2.61066 13.3893 2.13333 12.8 2.13333H3.19997ZM3.19997 3.2H12.8V6.4H11.0614C10.3867 5.43355 9.26805 4.8 7.99997 4.8C6.73188 4.8 5.61324 5.43355 4.93851 6.4H3.19997V3.2ZM11.2 4.26666V5.33333H12.2666V4.26666H11.2ZM7.99997 5.86666C9.47037 5.86666 10.6666 7.06293 10.6666 8.53333C10.6666 10.0037 9.47037 11.2 7.99997 11.2C6.52957 11.2 5.3333 10.0037 5.3333 8.53333C5.3333 7.06293 6.52957 5.86666 7.99997 5.86666ZM7.99997 6.93333C7.75303 6.93333 7.52257 6.99401 7.31351 7.09375C7.40791 7.18975 7.46663 7.32106 7.46663 7.46666C7.46663 7.76106 7.2277 8 6.9333 8C6.7877 8 6.65638 7.94127 6.56038 7.84687C6.46065 8.05594 6.39997 8.2864 6.39997 8.53333C6.39997 9.41706 7.11623 10.1333 7.99997 10.1333C8.8837 10.1333 9.59997 9.41706 9.59997 8.53333C9.59997 7.6496 8.8837 6.93333 7.99997 6.93333Z" fill="url(#paint0_linear)"/>
<defs>
<linearGradient id="paint0_linear" x1="2.1333" y1="2.13333" x2="15.2867" y2="4.03268" gradientUnits="userSpaceOnUse">
<stop stop-color="#F2BF10"/>
<stop offset="1" stop-color="#F57777"/>
</linearGradient>
</defs>
</svg>
