<svg width="16" height="16" viewBox="0 0 16 16" fill="none" xmlns="http://www.w3.org/2000/svg">
<path d="M14.9334 3.69974C14.423 3.92641 13.8747 4.07894 13.2992 4.14774C13.887 3.79574 14.3376 3.23841 14.5499 2.57388C14.0006 2.89974 13.3915 3.13654 12.743 3.26454C12.224 2.71148 11.4848 2.36588 10.6667 2.36588C9.0955 2.36588 7.8219 3.64001 7.8219 5.21068C7.8219 5.43361 7.8475 5.65121 7.8955 5.85868C5.53123 5.74028 3.43523 4.60748 2.0315 2.88588C1.78723 3.30614 1.64696 3.79468 1.64696 4.31681C1.64696 5.30348 2.14883 6.17441 2.91203 6.68428C2.4459 6.66934 2.00696 6.54134 1.6235 6.32854C1.6235 6.34081 1.6235 6.35201 1.6235 6.36428C1.6235 7.74294 2.60376 8.89281 3.90563 9.15361C3.66723 9.21868 3.4155 9.25334 3.15576 9.25334C2.97283 9.25334 2.79416 9.23521 2.62083 9.20268C2.98296 10.3328 4.03363 11.1557 5.27843 11.1787C4.3051 11.9419 3.07843 12.3968 1.7451 12.3968C1.51576 12.3968 1.2891 12.3835 1.06616 12.3568C2.32536 13.1637 3.8203 13.6347 5.42723 13.6347C10.6603 13.6347 13.5211 9.29974 13.5211 5.54028C13.5211 5.41708 13.5184 5.29441 13.5131 5.17228C14.0694 4.77068 14.552 4.26988 14.9334 3.69974Z" fill="url(#paint0_linear)"/>
<defs>
<linearGradient id="paint0_linear" x1="1.06616" y1="2.36588" x2="16.45" y2="5.09953" gradientUnits="userSpaceOnUse">
<stop stop-color="#F2BF10"/>
<stop offset="1" stop-color="#F57777"/>
</linearGradient>
</defs>
</svg>
