<svg width="234" height="40" viewBox="0 0 234 40" fill="none">
    <g>
        <path fill-rule="evenodd" clip-rule="evenodd"
              d="M34.2673 23.9024C33.5698 24.3434 32.7483 24.398 32.1239 24.0459C31.3307 23.598 30.8946 22.5493 30.8946 21.0907V16.7268C30.8946 14.6195 30.0615 13.12 28.6683 12.7151C26.3073 12.0273 24.5317 14.9161 23.8644 16.001L19.7005 22.7522V14.5005C19.6537 12.602 19.0371 11.4663 17.8663 11.1239C17.0917 10.8976 15.9327 10.9883 14.8068 12.7112L5.47805 27.6907C4.22915 25.3198 3.5781 22.6798 3.58146 20C3.58146 10.9766 10.8127 3.6361 19.7005 3.6361C28.5883 3.6361 35.8185 10.9766 35.8185 20C35.8185 20.0156 35.8224 20.0293 35.8234 20.0439C35.8234 20.0595 35.8205 20.0732 35.8215 20.0888C35.9054 21.8361 35.3395 23.2263 34.2673 23.9034V23.9024ZM39.4 20.001V20V19.9551L39.399 19.9102C39.3493 8.92098 30.5327 0 19.6995 0C8.83805 0 0 8.97171 0 20C0 31.0273 8.83805 40 19.7005 40C24.6849 40 29.442 38.1054 33.0937 34.6663C33.8195 33.9834 33.8624 32.8332 33.1893 32.0976C33.0308 31.9228 32.8391 31.7815 32.6254 31.6818C32.4116 31.5821 32.1801 31.5261 31.9444 31.517C31.7087 31.5079 31.4736 31.546 31.2528 31.6289C31.032 31.7118 30.83 31.838 30.6585 32C27.6986 34.8029 23.7769 36.3647 19.7005 36.3639C14.9415 36.3639 10.6595 34.2576 7.70634 30.9171L16.119 17.4088V23.6361C16.119 26.6273 17.279 27.5941 18.2517 27.8771C19.2254 28.16 20.7132 27.9668 22.2751 25.4302L26.9024 17.9288C27.0507 17.6868 27.1873 17.478 27.3122 17.2976V21.0907C27.3122 23.8868 28.4322 26.1229 30.3844 27.2244C32.1444 28.2176 34.3571 28.1278 36.16 26.9902C38.3454 25.6098 39.5229 23.0663 39.4 20.001ZM66.8273 13.1678C67.3005 13.4556 67.7102 14.0956 67.7102 14.6722C67.7102 15.6 66.922 16.3678 66.039 16.3678C65.8185 16.3678 65.598 16.3044 65.4088 16.24C64.3678 15.4722 63.0439 14.96 61.6566 14.96C58.3785 14.96 56.1083 17.6478 56.1083 20.9756C56.1083 24.3044 58.3785 26.96 61.6566 26.96C63.2956 26.96 64.7463 26.2878 65.8498 25.2644C66.1348 25.0595 66.4763 24.9477 66.8273 24.9444C67.7102 24.9444 68.4039 25.6478 68.4039 26.5444C68.4039 27.12 68.0566 27.6322 67.6156 27.92C66.039 29.2644 63.8956 30.16 61.6888 30.16C56.6449 30.16 52.5454 26 52.5454 20.88C52.5454 15.76 56.6439 11.6 61.6888 11.6C63.5805 11.6 65.3766 12.1756 66.8273 13.1678ZM76.0507 17.04C79.4868 17.04 82.3873 19.9522 82.3873 23.5356C82.3873 27.12 79.4868 30.16 76.0507 30.16C72.4566 30.16 69.4615 27.12 69.4615 23.5356C69.4615 19.9522 72.4566 17.04 76.0507 17.04ZM76.0185 26.96C77.5327 26.96 78.8244 25.52 78.8244 23.5678C78.8244 21.6166 77.5327 20.4 76.0185 20.4C74.3795 20.4 73.0234 21.5844 73.0234 23.5678C73.0234 25.52 74.3795 26.96 76.0185 26.96ZM84.5483 28.1756V19.0244C84.5483 18.0322 85.3366 17.2 86.3141 17.2C87.2917 17.2 88.1112 18.0322 88.1112 19.0244V28.1756C88.1112 29.1678 87.2917 30 86.3141 30C85.3366 30 84.5483 29.1678 84.5483 28.1756ZM84.2654 13.7444C84.2654 12.56 85.1785 11.6 86.3141 11.6C87.48 11.6 88.4263 12.56 88.4263 13.7444C88.4263 14.8956 87.48 15.8244 86.3141 15.8244C85.1785 15.8244 84.2654 14.8956 84.2654 13.7444ZM94.9385 23.2156V28.1756C94.9385 29.1678 94.119 30 93.1405 30C92.1639 30 91.3746 29.1678 91.3746 28.1756V18.6078C91.3746 17.84 92.0059 17.2 92.7629 17.2C93.519 17.2 94.119 17.84 94.119 18.6078C95.5688 17.2644 96.8293 17.04 98.0273 17.04C101.59 17.04 103.167 19.7278 103.167 22.7678V28.1756C103.167 29.1678 102.347 30 101.37 30C100.392 30 99.6039 29.1678 99.6039 28.1756V23.2156C99.6039 21.6478 99.4146 20.3356 97.1766 20.3356C95.6 20.3356 94.9376 21.6478 94.9376 23.2156H94.9385ZM114.754 25.1044C114.344 25.1044 114.061 24.9122 113.84 24.6556L109.678 20.1444V28.1756C109.678 29.1678 108.859 30 107.881 30C106.903 30 106.115 29.1678 106.115 28.1756V12.2732C106.166 12.1392 106.257 12.0242 106.376 11.9439C106.495 11.8636 106.635 11.8218 106.779 11.8244C107.093 11.8244 107.344 12.081 107.535 12.2732L114.155 19.7288C114.344 19.9532 114.596 20.081 114.723 20.081C114.849 20.081 115.1 19.9532 115.29 19.7298L121.911 12.2732C122.1 12.081 122.352 11.8244 122.667 11.8244C122.982 11.8244 123.235 12.0166 123.33 12.2732V28.1756C123.33 29.1678 122.541 30 121.564 30C120.586 30 119.767 29.1678 119.767 28.1756V20.1444L115.606 24.6556C115.384 24.9122 115.1 25.1044 114.754 25.1044ZM131.891 26.96C133.499 26.96 134.854 25.52 134.854 23.5678C134.854 21.6166 133.467 20.3356 131.891 20.3356C130.314 20.3356 129.053 21.6478 129.053 23.5678C129.053 25.4556 130.314 26.96 131.891 26.96ZM135.674 28.5922L135.61 28.1756C134.917 29.5512 132.709 30.16 131.291 30.16C127.948 30.16 125.49 27.12 125.49 23.5356C125.49 19.9522 128.012 17.04 131.48 17.04C132.079 17.04 134.065 17.2 135.61 19.0244L135.673 18.6078C135.673 17.84 136.272 17.2 137.029 17.2C137.785 17.2 138.416 17.84 138.416 18.6078V28.5922C138.416 29.36 137.785 30 137.028 30C136.272 30 135.672 29.36 135.672 28.5922H135.674ZM148.301 20.3356H147.924C145.685 20.4644 145.244 21.7444 145.244 23.2156V28.1756C145.244 29.1678 144.424 30 143.447 30C142.469 30 141.681 29.1678 141.681 28.1756V18.6078C141.681 17.84 142.311 17.2 143.068 17.2C143.825 17.2 144.424 17.84 144.424 18.6078C145.748 17.36 146.82 17.1044 147.924 17.04H148.27C149.122 17.04 149.909 17.7756 149.909 18.7044C149.909 19.5678 149.153 20.3356 148.301 20.3356ZM162.033 27.3444C162.191 27.6 162.286 27.8878 162.286 28.2078C162.286 29.1356 161.434 30 160.52 30C159.89 30 159.353 29.52 158.943 29.0078L154.846 24.24V28.1756C154.846 29.1678 154.025 30 153.048 30C152.07 30 151.282 29.1678 151.282 28.1756V13.6488C151.282 12.6556 152.07 11.8244 153.048 11.8244C154.025 11.8244 154.845 12.6556 154.845 13.6488V22.7044L158.943 18.16C159.353 17.68 159.858 17.2 160.489 17.2C161.372 17.2 162.191 18.0322 162.191 18.96C162.191 19.2478 162.128 19.5356 161.97 19.7922L158.723 23.3434L162.033 27.3434V27.3444ZM169.019 20.4C168.041 20.4 166.464 20.9122 166.464 22.4156H171.603C171.603 20.88 169.964 20.4 169.018 20.4H169.019ZM173.684 24.6878H166.464C166.464 26.8322 168.513 27.1522 169.427 27.1522C170.091 27.1522 171.036 27.0244 171.761 26.7034C171.981 26.5444 172.36 26.4156 172.675 26.4156C173.463 26.4156 174.125 27.0888 174.125 27.8888C174.125 28.4322 173.779 28.9122 173.338 29.1678C172.234 29.9678 170.815 30.16 169.46 30.16C165.865 30.16 162.87 28.2088 162.87 23.6956C162.87 20.1444 164.699 17.04 168.955 17.04C172.391 17.04 175.008 19.28 175.071 23.28C175.071 24.0478 174.441 24.6878 173.684 24.6878ZM183.601 30.16H182.623C179.911 30.16 178.336 28.9756 178.336 24.72V20.3356H177.421C176.57 20.3356 175.814 19.5678 175.814 18.7044C175.814 17.7756 176.57 17.04 177.421 17.04H178.336V13.6478C178.336 12.6556 179.124 11.8234 180.101 11.8234C181.078 11.8234 181.899 12.6556 181.899 13.6478V17.04H183.38C184.231 17.04 184.988 17.7756 184.988 18.7044C184.988 19.5678 184.231 20.3356 183.38 20.3356H181.899V24.0156C181.899 26.4478 182.024 26.96 183.097 26.96H183.601C184.452 26.96 185.177 27.6644 185.177 28.56C185.177 29.4244 184.452 30.16 183.601 30.16ZM200.863 13.1678C201.336 13.4556 201.746 14.0956 201.746 14.6722C201.746 15.6 200.958 16.3678 200.075 16.3678C199.855 16.3678 199.633 16.3044 199.445 16.24C198.404 15.4722 197.08 14.96 195.693 14.96C192.415 14.96 190.143 17.6478 190.143 20.9756C190.143 24.3044 192.414 26.96 195.693 26.96C197.332 26.96 198.782 26.2878 199.886 25.2644C200.171 25.0595 200.512 24.9477 200.863 24.9444C201.746 24.9444 202.439 25.6478 202.439 26.5444C202.439 27.12 202.093 27.6322 201.652 27.92C200.075 29.2644 197.931 30.16 195.724 30.16C190.68 30.16 186.581 26 186.581 20.88C186.581 15.76 190.679 11.6 195.724 11.6C197.617 11.6 199.413 12.1756 200.863 13.1678ZM209.898 26.96C211.505 26.96 212.86 25.52 212.86 23.5678C212.86 21.6166 211.473 20.3356 209.897 20.3356C208.321 20.3356 207.059 21.6478 207.059 23.5678C207.059 25.4556 208.321 26.96 209.897 26.96H209.898ZM213.68 28.5922L213.618 28.1756C212.924 29.5512 210.717 30.16 209.298 30.16C205.956 30.16 203.497 27.12 203.497 23.5356C203.497 19.9522 206.02 17.04 209.487 17.04C210.086 17.04 212.072 17.2 213.618 19.0244L213.68 18.6078C213.68 17.84 214.279 17.2 215.036 17.2C215.792 17.2 216.423 17.84 216.423 18.6078V28.5922C216.423 29.36 215.792 30 215.036 30C214.279 30 213.68 29.36 213.68 28.5922ZM226.214 26.96C227.79 26.96 229.051 25.4556 229.051 23.5678C229.051 21.6478 227.79 20.3356 226.214 20.3356C224.637 20.3356 223.25 21.6156 223.25 23.5678C223.25 25.52 224.606 26.96 226.214 26.96ZM223.25 29.1044V33.6478C223.25 34.64 222.43 35.4722 221.453 35.4722C220.476 35.4722 219.687 34.64 219.687 33.6478V18.6078C219.687 17.84 220.318 17.2 221.075 17.2C221.831 17.2 222.431 17.84 222.431 18.7356C223.754 17.36 225.394 17.04 226.623 17.04C230.092 17.04 232.614 19.9522 232.614 23.5356C232.614 27.12 230.155 30.16 226.813 30.16C225.773 30.16 224.227 29.84 223.25 29.1044Z"
              fill="#17181B"></path>
    </g>
</svg>
