<svg width="249" height="40" viewBox="0 0 249 40" fill="none" xmlns="http://www.w3.org/2000/svg">
    <g mask="url(#mask4)">
        <path
            d="M44.3956 17.9957L35.1495 1.96309C34.7959 1.36501 34.2926 0.869401 33.6892 0.525152C33.0857 0.180903 32.4029 -9.81687e-05 31.7082 3.99437e-08H13.2138C12.5164 0.000142186 11.8312 0.183791 11.2272 0.532504C10.6231 0.881217 10.1215 1.38272 9.77255 1.98665L0.526374 18.0133C0.181255 18.6186 -0.000244141 19.3033 -0.000244141 20C-0.000244141 20.6967 0.181255 21.3814 0.526374 21.9867L9.77255 38.0134C10.1199 38.6186 10.6212 39.1212 11.2256 39.4701C11.83 39.8191 12.516 40.0019 13.2138 40H31.7062C32.4037 39.9999 33.0888 39.8162 33.6929 39.4675C34.2969 39.1188 34.7986 38.6173 35.1475 38.0134L44.3937 21.9867C44.7393 21.3785 44.9212 20.691 44.9216 19.9914C44.9219 19.2919 44.7407 18.6042 44.3956 17.9957ZM22.46 33.7495V31.0012C24.6378 31.0012 26.7667 30.3554 28.5774 29.1455C30.3881 27.9356 31.7995 26.2159 32.6329 24.2039C33.4662 22.1919 33.6843 19.978 33.2594 17.842C32.8346 15.7061 31.7859 13.7442 30.246 12.2042C28.7061 10.6643 26.7441 9.61563 24.6082 9.19077C22.4722 8.7659 20.2583 8.98396 18.2463 9.81735C16.2343 10.6508 14.5146 12.0621 13.3047 13.8728C12.0948 15.6836 11.449 17.8124 11.449 19.9902C11.4429 22.3916 12.2319 24.7274 13.6928 26.6333L15.6795 24.6977C14.7145 23.3167 14.2002 21.671 14.2072 19.9863C14.2072 18.3505 14.6922 16.7515 15.601 15.3914C16.5098 14.0313 17.8015 12.9713 19.3127 12.3453C20.8239 11.7193 22.4869 11.5555 24.0912 11.8747C25.6955 12.1938 27.1692 12.9815 28.3258 14.1381C29.4825 15.2948 30.2702 16.7684 30.5893 18.3728C30.9084 19.9771 30.7446 21.64 30.1186 23.1512C29.4927 24.6625 28.4326 25.9542 27.0725 26.8629C25.7125 27.7717 24.1134 28.2568 22.4777 28.2568V25.5084C23.5676 25.5053 24.6322 25.1793 25.537 24.5715C26.4418 23.9637 27.1461 23.1014 27.5611 22.0935C27.976 21.0856 28.083 19.9774 27.8684 18.9087C27.6539 17.8401 27.1275 16.859 26.3557 16.0894C25.5838 15.3197 24.6013 14.7961 23.532 14.5846C22.4628 14.3731 21.3548 14.4832 20.3481 14.9011C19.3414 15.3189 18.4811 16.0257 17.8759 16.9322C17.2707 17.8386 16.9477 18.9042 16.9477 19.9941C16.9443 20.9594 17.1984 21.9081 17.6838 22.7424L19.7392 20.7381C19.6706 20.4988 19.6362 20.2509 19.6371 20.002C19.6371 19.4433 19.8028 18.8971 20.1132 18.4325C20.4236 17.968 20.8648 17.6059 21.3809 17.3921C21.8971 17.1783 22.4651 17.1224 23.0131 17.2313C23.5611 17.3403 24.0644 17.6094 24.4595 18.0045C24.8546 18.3995 25.1236 18.9029 25.2326 19.4509C25.3416 19.9988 25.2857 20.5668 25.0718 21.083C24.858 21.5992 24.496 22.0404 24.0314 22.3508C23.5669 22.6612 23.0207 22.8269 22.462 22.8269C22.1881 22.8245 21.9163 22.7781 21.6571 22.6894L14.5507 29.6231C14.4844 29.6892 14.4098 29.7466 14.3289 29.7939C14.3112 29.8115 14.2778 29.8115 14.2602 29.8272C14.2069 29.8628 14.1496 29.8918 14.0894 29.9136C14.056 29.9313 14.0207 29.9313 13.9873 29.947L13.8322 29.998C13.7991 29.9972 13.7662 30.0039 13.736 30.0177C13.685 30.0177 13.634 30.0353 13.5986 30.0353C13.5476 30.0353 13.4965 30.0177 13.4435 30.0177C13.4029 30.0191 13.3623 30.0131 13.3238 30L13.1687 29.949C13.1353 29.9313 13.1 29.9313 13.0666 29.9156C13.0114 29.8935 12.9593 29.8645 12.9115 29.8292C12.8806 29.8161 12.8515 29.799 12.8252 29.7782C12.7757 29.7426 12.7297 29.7025 12.6877 29.6584C12.6701 29.6408 12.6367 29.625 12.619 29.5897C10.4047 27.3144 9.04562 24.3432 8.77233 21.1801C8.49905 18.017 9.32838 14.8567 11.1197 12.2353C12.9109 9.614 15.5538 7.69301 18.6001 6.79824C21.6463 5.90347 24.9083 6.09002 27.8326 7.32624C30.757 8.56246 33.1637 10.7722 34.6444 13.5807C36.1252 16.3892 36.5888 19.6234 35.9567 22.7347C35.3246 25.8461 33.6356 28.643 31.1763 30.651C28.717 32.659 25.6389 33.7544 22.4639 33.7515L22.46 33.7495ZM55.5264 7.1064H63.9853C72.1695 7.02002 78.1981 12.3125 78.0784 19.949C78.1981 27.4323 72.1714 33.0664 63.9853 32.9446H55.5264V7.1064ZM63.9343 28.1861C69.1404 28.1861 72.6328 24.9333 72.6328 19.9666C72.6328 14.949 69.2248 11.9022 63.9343 11.9022H60.7934V28.1959H63.9343V28.1861ZM97.462 32.9623H92.5994V31.0797C91.8264 31.8522 90.9037 32.4588 89.888 32.8622C88.8723 33.2656 87.7849 33.4573 86.6924 33.4256C82.5837 33.4256 79.9963 31.0287 79.9963 27.6384C79.9963 24.1461 82.8212 22.0043 87.3246 22.0043H92.1871V21.1484C92.228 20.6744 92.1615 20.1973 91.9926 19.7525C91.8237 19.3077 91.5568 18.9067 91.2116 18.5793C90.8665 18.2519 90.452 18.0064 89.9989 17.8612C89.5458 17.716 89.0659 17.6747 88.5947 17.7405C87.5919 17.7674 86.6083 18.022 85.7183 18.4848C84.8283 18.9477 84.0552 19.6067 83.4573 20.4123L80.7089 17.1594C81.7179 15.8854 83.0079 14.8622 84.4781 14.1699C85.9484 13.4775 87.5589 13.1347 89.1836 13.1684C90.3005 13.0622 91.4271 13.204 92.4829 13.5837C93.5387 13.9635 94.4975 14.5718 95.2908 15.3651C96.0842 16.1585 96.6925 17.1173 97.0722 18.173C97.4519 19.2288 97.5938 20.3554 97.4875 21.4723V32.9623H97.462ZM92.1616 25.479H88.0274C86.2979 25.479 85.3222 26.1464 85.3222 27.4303C85.3222 28.7142 86.4176 29.5367 88.0961 29.5367C88.6189 29.5663 89.1422 29.4891 89.6342 29.3099C90.1262 29.1307 90.5766 28.8532 90.9579 28.4943C91.3392 28.1354 91.6434 27.7027 91.852 27.2224C92.0607 26.7422 92.1693 26.2244 92.1714 25.7008L92.1616 25.479ZM112.648 33.4256C111.571 33.4599 110.498 33.269 109.499 32.8651C108.499 32.4611 107.595 31.853 106.844 31.0797V40H101.543V13.5826H106.406V16.011C107.135 15.0617 108.084 14.3048 109.172 13.8063C110.26 13.3078 111.454 13.0828 112.648 13.1508C113.94 13.1629 115.215 13.4379 116.396 13.9589C117.578 14.4799 118.641 15.2361 119.52 16.1813C120.4 17.1266 121.078 18.241 121.513 19.4568C121.948 20.6726 122.13 21.9642 122.05 23.2528C122.132 24.5453 121.95 25.841 121.517 27.0614C121.083 28.2818 120.407 29.4015 119.528 30.3526C118.649 31.3037 117.586 32.0665 116.403 32.5947C115.221 33.1229 113.943 33.4056 112.648 33.4256ZM111.667 17.9289C110.983 17.9162 110.304 18.0487 109.676 18.3178C109.047 18.5868 108.482 18.9862 108.019 19.4896C107.556 19.993 107.206 20.5889 106.99 21.238C106.775 21.8871 106.699 22.5745 106.769 23.2548C106.699 23.9368 106.774 24.626 106.989 25.277C107.204 25.928 107.554 26.5262 108.017 27.0323C108.479 27.5384 109.044 27.9409 109.673 28.2135C110.302 28.4861 110.981 28.6226 111.667 28.6141C112.353 28.6168 113.032 28.4785 113.663 28.2078C114.293 27.9371 114.861 27.5397 115.332 27.0403C115.802 26.5409 116.165 25.9502 116.398 25.3047C116.631 24.6593 116.728 23.9729 116.685 23.2882C116.737 22.6003 116.646 21.9091 116.417 21.2583C116.189 20.6074 115.827 20.0112 115.356 19.5073C114.885 19.0035 114.314 18.603 113.68 18.3313C113.046 18.0596 112.363 17.9226 111.673 17.9289H111.667ZM136.296 33.4256C135.218 33.4599 134.146 33.269 133.146 32.8651C132.146 32.4611 131.242 31.853 130.491 31.0797V40H125.191V13.5826H130.069V16.011C130.796 15.0639 131.743 14.3085 132.828 13.8101C133.913 13.3117 135.104 13.0854 136.296 13.1508C137.587 13.1629 138.862 13.4379 140.044 13.9589C141.225 14.4799 142.288 15.2361 143.168 16.1813C144.047 17.1266 144.725 18.241 145.16 19.4568C145.595 20.6726 145.778 21.9642 145.697 23.2528C145.779 24.5453 145.598 25.841 145.164 27.0614C144.731 28.2818 144.054 29.4015 143.175 30.3526C142.296 31.3037 141.233 32.0665 140.051 32.5947C138.868 33.1229 137.591 33.4056 136.296 33.4256ZM135.314 17.9289C134.631 17.9162 133.952 18.0487 133.323 18.3178C132.694 18.5868 132.13 18.9862 131.667 19.4896C131.204 19.993 130.853 20.5889 130.637 21.238C130.422 21.8871 130.347 22.5745 130.416 23.2548C130.346 23.9368 130.421 24.626 130.636 25.277C130.851 25.928 131.202 26.5262 131.664 27.0323C132.127 27.5384 132.691 27.9409 133.32 28.2135C133.949 28.4861 134.629 28.6226 135.314 28.6141C136 28.6168 136.68 28.4785 137.31 28.2078C137.941 27.9371 138.509 27.5397 138.979 27.0403C139.45 26.5409 139.813 25.9502 140.045 25.3047C140.278 24.6593 140.376 23.9729 140.332 23.2882C140.386 22.6 140.296 21.9081 140.068 21.2566C139.84 20.6051 139.479 20.0083 139.007 19.5041C138.536 18.9999 137.964 18.5995 137.33 18.3283C136.695 18.0571 136.01 17.9211 135.32 17.9289H135.314ZM164.928 32.9623L158.232 23.8359H154.362V32.9623H149.062V7.1064H158.771C164.182 7.1064 168.086 10.479 168.086 15.4456C168.114 16.9784 167.701 18.487 166.897 19.7922C166.093 21.0974 164.931 22.1445 163.55 22.8092L170.878 32.9466H164.928V32.9623ZM154.347 19.1794H158.769C159.28 19.2337 159.797 19.1766 160.284 19.012C160.77 18.8475 161.216 18.5794 161.589 18.2262C161.962 17.873 162.254 17.4431 162.445 16.9661C162.636 16.4891 162.722 15.9764 162.696 15.4633C162.712 14.9543 162.62 14.4476 162.425 13.9771C162.23 13.5066 161.937 13.0831 161.565 12.7348C161.194 12.3865 160.752 12.1214 160.27 11.9571C159.788 11.7929 159.276 11.7334 158.769 11.7825H154.352L154.347 19.1794ZM188.642 32.9623H183.779V31.0797C183.006 31.8522 182.084 32.4588 181.068 32.8622C180.052 33.2656 178.965 33.4573 177.872 33.4256C173.764 33.4256 171.176 31.0287 171.176 27.6384C171.176 24.1461 174.001 22.0043 178.504 22.0043H183.367V21.1484C183.408 20.674 183.341 20.1965 183.172 19.7514C183.003 19.3063 182.736 18.9051 182.39 18.5776C182.045 18.25 181.63 18.0047 181.176 17.8598C180.722 17.7148 180.242 17.6741 179.771 17.7405C178.768 17.7674 177.784 18.022 176.894 18.4848C176.004 18.9477 175.231 19.6067 174.633 20.4123L171.885 17.1594C172.892 15.8879 174.18 14.8664 175.647 14.1745C177.115 13.4825 178.722 13.1389 180.344 13.1704C181.461 13.0641 182.587 13.206 183.643 13.5857C184.699 13.9654 185.658 14.5737 186.451 15.3671C187.244 16.1604 187.853 17.1192 188.232 18.175C188.612 19.2308 188.754 20.3574 188.648 21.4743V32.9643L188.642 32.9623ZM183.341 25.479H179.197C177.468 25.479 176.492 26.1464 176.492 27.4303C176.492 28.7142 177.588 29.5367 179.266 29.5367C179.789 29.5663 180.312 29.4891 180.804 29.3099C181.296 29.1307 181.747 28.8532 182.128 28.4943C182.509 28.1354 182.813 27.7027 183.022 27.2224C183.231 26.7422 183.339 26.2244 183.341 25.7008V25.479ZM212.136 3.57872V32.9446H207.274V30.5477C206.546 31.4956 205.598 32.2516 204.511 32.75C203.425 33.2484 202.234 33.4743 201.041 33.4079C199.747 33.3947 198.469 33.1177 197.286 32.594C196.103 32.0704 195.039 31.3109 194.159 30.3622C193.279 29.4134 192.602 28.2952 192.168 27.0759C191.735 25.8566 191.555 24.5617 191.639 23.2705C191.555 21.9793 191.735 20.6845 192.168 19.4651C192.602 18.2458 193.279 17.1276 194.159 16.1789C195.039 15.2301 196.103 14.4707 197.286 13.947C198.469 13.4233 199.747 13.1464 201.041 13.1331C202.117 13.0814 203.193 13.261 204.194 13.6599C205.195 14.0588 206.099 14.6678 206.846 15.4456V3.57872H212.136ZM202.034 17.9289C201.348 17.9262 200.669 18.0645 200.038 18.3352C199.408 18.6059 198.84 19.0033 198.369 19.5027C197.899 20.0021 197.536 20.5928 197.303 21.2383C197.07 21.8837 196.973 22.5701 197.016 23.2548C196.962 23.9435 197.052 24.6358 197.281 25.2878C197.509 25.9397 197.871 26.5368 198.343 27.0411C198.815 27.5453 199.387 27.9457 200.023 28.2165C200.658 28.4873 201.343 28.6227 202.034 28.6141C202.718 28.6268 203.397 28.4943 204.025 28.2252C204.654 27.9562 205.219 27.5568 205.682 27.0534C206.145 26.55 206.495 25.9541 206.711 25.305C206.926 24.6559 207.002 23.9685 206.932 23.2882C206.999 22.6067 206.922 21.9187 206.706 21.269C206.49 20.6192 206.14 20.0222 205.678 19.5167C205.216 19.0112 204.653 18.6086 204.025 18.3351C203.397 18.0615 202.719 17.9231 202.034 17.9289ZM232.648 32.9623H227.786V31.0797C227.013 31.8522 226.09 32.4588 225.074 32.8622C224.059 33.2656 222.971 33.4573 221.879 33.4256C217.77 33.4256 215.183 31.0287 215.183 27.6384C215.183 24.1461 218.008 22.0043 222.511 22.0043H227.374V21.1484C227.415 20.674 227.348 20.1965 227.179 19.7514C227.01 19.3063 226.743 18.9051 226.397 18.5776C226.051 18.25 225.636 18.0047 225.183 17.8598C224.729 17.7148 224.249 17.6741 223.777 17.7405C222.774 17.7674 221.791 18.022 220.901 18.4848C220.011 18.9477 219.238 19.6067 218.64 20.4123L215.891 17.1594C216.899 15.8879 218.187 14.8664 219.654 14.1745C221.121 13.4825 222.729 13.1389 224.35 13.1704C225.467 13.0641 226.594 13.206 227.65 13.5857C228.706 13.9654 229.664 14.5737 230.458 15.3671C231.251 16.1604 231.859 17.1192 232.239 18.175C232.619 19.2308 232.761 20.3574 232.654 21.4743V32.9643L232.648 32.9623ZM227.374 25.479H223.232C221.502 25.479 220.526 26.1464 220.526 27.4303C220.526 28.7142 221.622 29.5367 223.3 29.5367C223.823 29.5663 224.346 29.4891 224.838 29.3099C225.33 29.1307 225.781 28.8532 226.162 28.4943C226.543 28.1354 226.848 27.7027 227.056 27.2224C227.265 26.7422 227.374 26.2244 227.376 25.7008L227.374 25.479ZM248.659 18.2371H247.256C246.566 18.1569 245.867 18.231 245.21 18.4541C244.552 18.6773 243.953 19.0439 243.454 19.5274C242.956 20.0109 242.571 20.5992 242.328 21.2496C242.086 21.9001 241.99 22.5964 242.05 23.2882V32.9623H236.749V13.5787H241.612V15.8912C242.246 15.0871 243.055 14.439 243.978 13.9966C244.902 13.5542 245.914 13.3293 246.938 13.3392C247.524 13.3237 248.108 13.4046 248.667 13.5787V18.2371H248.659Z"
            fill="#09162E" />
    </g>
</svg>
