<svg width="48" height="48" viewBox="0 0 48 48" fill="none" xmlns="http://www.w3.org/2000/svg">
<g clip-path="url(#clip0)">
<path d="M38.3999 4.80014C38.9749 4.79389 39.5124 5.09389 39.8062 5.59389C40.0937 6.09389 40.0937 6.70639 39.8062 7.20639C39.5124 7.70639 38.9749 8.00639 38.3999 8.00014H9.59995C9.02495 8.00639 8.48745 7.70639 8.1937 7.20639C7.9062 6.70639 7.9062 6.09389 8.1937 5.59389C8.48745 5.09389 9.02495 4.79389 9.59995 4.80014H38.3999ZM41.5999 11.2001C42.1749 11.1939 42.7124 11.4939 43.0062 11.9939C43.2937 12.4939 43.2937 13.1064 43.0062 13.6064C42.7124 14.1064 42.1749 14.4064 41.5999 14.4001H6.39995C5.82495 14.4064 5.28745 14.1064 4.9937 13.6064C4.7062 13.1064 4.7062 12.4939 4.9937 11.9939C5.28745 11.4939 5.82495 11.1939 6.39995 11.2001H41.5999ZM41.5999 17.6001C41.8062 17.6001 42.0124 17.6189 42.2187 17.6626C42.2374 17.6689 42.2499 17.6689 42.2687 17.6751C43.7437 17.9876 44.7999 19.2939 44.7999 20.8001V25.7689C43.2437 24.1814 41.2249 23.0501 38.9624 22.6064C38.6062 22.0939 38.3999 21.4689 38.3999 20.8001H9.59995C9.59995 22.5689 8.1687 24.0001 6.39995 24.0001V36.8001C8.1687 36.8001 9.59995 38.2314 9.59995 40.0001H22.4V43.2001H6.39995C6.1937 43.2001 5.98745 43.1814 5.7812 43.1376C5.76245 43.1314 5.74995 43.1314 5.7312 43.1251C4.2562 42.8126 3.19995 41.5064 3.19995 40.0001V20.8001C3.19995 20.5939 3.2187 20.3876 3.26245 20.1814C3.2687 20.1626 3.2687 20.1501 3.27495 20.1314C3.58745 18.6564 4.8937 17.6001 6.39995 17.6001H41.5999ZM20.025 36.8001C18.5562 35.4814 17.6 33.4751 17.6 31.2001C17.6 27.2251 20.4625 24.0001 24 24.0001C25.7562 24.0001 27.3437 24.7939 28.5 26.0814C27.2374 27.4814 26.3124 29.2001 25.8812 31.1064C23.8187 32.1689 22.4 34.3189 22.4 36.8001H20.025ZM12.8 30.4001C12.8 31.2814 12.0812 32.0001 11.2 32.0001C10.3187 32.0001 9.59995 31.2814 9.59995 30.4001C9.59995 29.5189 10.3187 28.8001 11.2 28.8001C12.0812 28.8001 12.8 29.5189 12.8 30.4001Z" fill="white"/>
<path d="M44.7999 33.6001C44.7999 29.1876 41.2124 25.6001 36.7999 25.6001C32.3874 25.6001 28.7999 29.1876 28.7999 33.6001C27.0311 33.6001 25.5999 35.0313 25.5999 36.8001V44.8001C25.5999 46.5688 27.0311 48.0001 28.7999 48.0001H44.7999C46.5686 48.0001 47.9999 46.5688 47.9999 44.8001V36.8001C47.9999 35.0313 46.5686 33.6001 44.7999 33.6001ZM36.7999 28.8001C39.4436 28.8001 41.5999 30.9563 41.5999 33.6001H31.9999C31.9999 30.9563 34.1561 28.8001 36.7999 28.8001Z" fill="white"/>
</g>
<defs>
<clipPath id="clip0">
<rect width="48" height="48" fill="white"/>
</clipPath>
</defs>
</svg>
