<svg width="48" height="48" viewBox="0 0 48 48" fill="none" xmlns="http://www.w3.org/2000/svg">
<path d="M20.8 3.19995C20.3756 3.19995 19.9686 3.36852 19.6686 3.66858C19.3685 3.96864 19.2 4.3756 19.2 4.79995C19.2 10.8656 11.2 14.3856 11.2 22.4C11.2 28.9853 17.5373 33.3578 20.5593 33.5781C20.6389 33.5914 20.7193 33.5987 20.8 33.6C21.2243 33.6 21.6313 33.4314 21.9313 33.1313C22.2314 32.8313 22.4 32.4243 22.4 32C22.4003 31.7617 22.3475 31.5265 22.2453 31.3113C22.1431 31.0961 21.9942 30.9065 21.8093 30.7562C20.3533 29.5754 19.2 27.9904 19.2 25.5312C19.2 21.2816 24 17.6 24 17.6C22.6651 23.5002 27.0358 22.4322 27.2187 31.7656C27.2067 31.8431 27.2005 31.9215 27.2 32C27.2007 32.1124 27.2132 32.2245 27.2375 32.3343C27.2375 32.3388 27.2375 32.3424 27.2375 32.3468H27.2406C27.3194 32.7018 27.5168 33.0194 27.8003 33.2471C28.0837 33.4749 28.4363 33.5994 28.8 33.6C29.1369 33.5991 29.465 33.492 29.7375 33.2937L29.7406 33.2906C29.7524 33.2848 36.8 29.8383 36.8 24C36.8 20.1538 34.8743 15.1382 33.4906 12.2187C33.3736 11.9186 33.1687 11.6608 32.9027 11.479C32.6367 11.2972 32.3221 11.2 32 11.2C31.5756 11.2 31.1686 11.3685 30.8686 11.6686C30.5685 11.9686 30.4 12.3756 30.4 12.8C30.4 12.8 30.3504 16.28 28.8 17.6C28.8 9.94715 24.7788 6.81545 21.9468 3.68745C21.9468 3.68641 21.9468 3.68537 21.9468 3.68433C21.7977 3.53105 21.6194 3.40921 21.4224 3.32602C21.2255 3.24282 21.0138 3.19995 20.8 3.19995ZM38.4406 33.5937C38.2961 33.592 38.1521 33.6099 38.0125 33.6468L12.4125 40.0468C12.0005 40.1496 11.6463 40.4118 11.4277 40.7757C11.2091 41.1397 11.1441 41.5755 11.2468 41.9875C11.3496 42.3994 11.6118 42.7536 11.9757 42.9722C12.3397 43.1908 12.7755 43.2559 13.1875 43.1531L38.7875 36.7531C39.1694 36.665 39.5058 36.4398 39.7327 36.1202C39.9597 35.8006 40.0614 35.4088 40.0186 35.0192C39.9758 34.6295 39.7915 34.2692 39.5006 34.0064C39.2098 33.7436 38.8326 33.5968 38.4406 33.5937ZM9.33121 33.6218C8.71644 33.7272 8.19299 34.1887 8.04059 34.8343C7.83739 35.6951 8.37354 36.5561 9.23434 36.7593L12.5531 37.5406L19.3281 35.8437L9.96559 33.6406C9.75039 33.5906 9.53614 33.5867 9.33121 33.6218ZM36.3187 39.8437L29.5437 41.5375L36.4343 43.1593C36.5575 43.1881 36.6815 43.2 36.8031 43.2C37.5279 43.2 38.1849 42.7016 38.3593 41.9656C38.5609 41.1048 38.0264 40.2438 37.1656 40.0406L36.3187 39.8437Z" fill="white"/>
</svg>
