<svg width="48" height="48" viewBox="0 0 48 48" fill="none" xmlns="http://www.w3.org/2000/svg">
<path d="M34.8086 1.00388C34.6786 1.01175 34.5497 1.04453 34.4297 1.10153C34.1917 1.21753 34.0089 1.4228 33.9219 1.6738L28.0547 18.6738C27.9297 19.0348 28.023 19.437 28.293 19.707C28.484 19.897 28.739 20 29 20C29.109 20 29.2202 19.9823 29.3262 19.9453L46.3262 14.0761C46.8492 13.8951 47.1253 13.3286 46.9453 12.8066C45.0583 7.33661 40.6644 2.94366 35.1934 1.05466C35.0694 1.01216 34.9386 0.996004 34.8086 1.00388ZM24 6.07419V24.8789L37.293 38.1718C40.22 34.7598 42 30.337 42 25.5C42 22.912 41.4825 20.4446 40.5625 18.1816L29.9844 21.832C29.6684 21.943 29.337 22 29 22C28.21 22 27.4369 21.6801 26.8789 21.1211C26.0719 20.3141 25.7921 19.0975 26.1641 18.0215L29.8184 7.43747C27.9984 6.69747 26.042 6.23319 24 6.07419ZM21 6.07614C11.445 6.80914 3.80917 14.445 3.07617 24H21V6.07614ZM3.07617 27C3.84717 37.052 12.254 45 22.5 45C27.337 45 31.7599 43.2199 35.1719 40.2929L21.8789 27H3.07617Z" fill="white"/>
</svg>
