<svg width="48" height="48" viewBox="0 0 48 48" fill="none" xmlns="http://www.w3.org/2000/svg">
<path d="M11.1687 4.78439C10.753 4.79677 10.3585 4.9705 10.0687 5.26876L3.80933 11.5281C3.61331 11.6777 3.4545 11.8705 3.34528 12.0915C3.23606 12.3125 3.17939 12.5558 3.17969 12.8023C3.17999 13.0489 3.23726 13.292 3.34702 13.5128C3.45678 13.7336 3.61607 13.926 3.81246 14.075L10.0687 20.3313C10.2161 20.4848 10.3927 20.6074 10.5881 20.6919C10.7835 20.7763 10.9938 20.8209 11.2067 20.8231C11.4196 20.8253 11.6307 20.7849 11.8278 20.7045C12.0249 20.624 12.2039 20.505 12.3545 20.3545C12.505 20.204 12.624 20.0249 12.7044 19.8279C12.7849 19.6308 12.8252 19.4196 12.8231 19.2068C12.8209 18.9939 12.7763 18.7836 12.6918 18.5882C12.6074 18.3928 12.4848 18.2162 12.3312 18.0688L8.66246 14.4H30.4C36.6039 14.4 41.6 19.396 41.6 25.6C41.6 31.804 36.6039 36.8 30.4 36.8H24C23.7879 36.797 23.5774 36.8362 23.3807 36.9152C23.1839 36.9943 23.0049 37.1117 22.8539 37.2606C22.7029 37.4094 22.583 37.5868 22.5012 37.7824C22.4193 37.978 22.3772 38.188 22.3772 38.4C22.3772 38.612 22.4193 38.822 22.5012 39.0176C22.583 39.2132 22.7029 39.3906 22.8539 39.5395C23.0049 39.6883 23.1839 39.8057 23.3807 39.8848C23.5774 39.9638 23.7879 40.003 24 40H30.4C37.7665 40 43.6404 34.3481 44.475 27.2H44.8V25.6C44.8 17.6664 38.3336 11.2 30.4 11.2H8.66246L12.3312 7.53126C12.5624 7.30652 12.7203 7.01718 12.7843 6.70114C12.8482 6.38511 12.8152 6.05714 12.6895 5.7602C12.5638 5.46326 12.3514 5.21122 12.08 5.03709C11.8087 4.86296 11.491 4.77488 11.1687 4.78439ZM4.79996 36.8C4.37561 36.8 3.96865 36.9686 3.66859 37.2686C3.36853 37.5687 3.19996 37.9757 3.19996 38.4C3.19996 38.8244 3.36853 39.2313 3.66859 39.5314C3.96865 39.8314 4.37561 40 4.79996 40C5.22431 40 5.63127 39.8314 5.93133 39.5314C6.23139 39.2313 6.39996 38.8244 6.39996 38.4C6.39996 37.9757 6.23139 37.5687 5.93133 37.2686C5.63127 36.9686 5.22431 36.8 4.79996 36.8ZM11.2 36.8C10.7756 36.8 10.3686 36.9686 10.0686 37.2686C9.76853 37.5687 9.59996 37.9757 9.59996 38.4C9.59996 38.8244 9.76853 39.2313 10.0686 39.5314C10.3686 39.8314 10.7756 40 11.2 40C11.6243 40 12.0313 39.8314 12.3313 39.5314C12.6314 39.2313 12.8 38.8244 12.8 38.4C12.8 37.9757 12.6314 37.5687 12.3313 37.2686C12.0313 36.9686 11.6243 36.8 11.2 36.8ZM17.6 36.8C17.1756 36.8 16.7686 36.9686 16.4686 37.2686C16.1685 37.5687 16 37.9757 16 38.4C16 38.8244 16.1685 39.2313 16.4686 39.5314C16.7686 39.8314 17.1756 40 17.6 40C18.0243 40 18.4313 39.8314 18.7313 39.5314C19.0314 39.2313 19.2 38.8244 19.2 38.4C19.2 37.9757 19.0314 37.5687 18.7313 37.2686C18.4313 36.9686 18.0243 36.8 17.6 36.8Z" fill="white"/>
</svg>
