<svg width="48" height="48" viewBox="0 0 48 48" fill="none" xmlns="http://www.w3.org/2000/svg">
<path d="M9.5999 6.3999C7.8319 6.3999 6.3999 7.8319 6.3999 9.5999V14.3999C6.3999 15.2831 7.1167 15.9999 7.9999 15.9999H39.9999C40.8831 15.9999 41.5999 15.2831 41.5999 14.3999V9.5999C41.5999 7.8319 40.1679 6.3999 38.3999 6.3999H9.5999ZM7.9999 19.1999C7.1167 19.1999 6.3999 19.9167 6.3999 20.7999V27.1999C6.3999 28.0831 7.1167 28.7999 7.9999 28.7999H29.8968C31.6984 25.0223 35.5439 22.3999 39.9999 22.3999C40.5439 22.3999 41.0751 22.4528 41.5999 22.528V20.7999C41.5999 19.9167 40.8831 19.1999 39.9999 19.1999H7.9999ZM39.9999 25.5999C35.5823 25.5999 31.9999 29.1823 31.9999 33.5999C31.9999 34.5519 32.1943 35.4535 32.4999 36.2999L25.5999 43.1999V47.9874L30.3999 47.9999V44.7999H33.5999L37.2999 41.0999C38.1463 41.4055 39.0479 41.5999 39.9999 41.5999C44.4175 41.5999 47.9999 38.0175 47.9999 33.5999C47.9999 29.1823 44.4175 25.5999 39.9999 25.5999ZM40.7999 30.3999C42.1247 30.3999 43.1999 31.4751 43.1999 32.7999C43.1999 34.1247 42.1247 35.1999 40.7999 35.1999C39.4751 35.1999 38.3999 34.1247 38.3999 32.7999C38.3999 31.4751 39.4751 30.3999 40.7999 30.3999ZM7.9999 31.9999C7.1167 31.9999 6.3999 32.7167 6.3999 33.5999V38.3999C6.3999 40.1679 7.8319 41.5999 9.5999 41.5999H22.6749L23.3374 40.9374L28.9468 35.328C28.8492 34.7472 28.7999 34.1711 28.7999 33.5999C28.7999 33.0559 28.8528 32.5247 28.928 31.9999H7.9999Z" fill="white"/>
</svg>
