<svg width="48" height="48" viewBox="0 0 48 48" fill="none" xmlns="http://www.w3.org/2000/svg">
<path d="M23.9999 4.80005C16.6367 4.80005 8.97803 6.45942 8.97803 6.45942L8.97178 6.46567C8.24707 6.61075 7.59492 7.00221 7.1261 7.57357C6.65727 8.14493 6.40068 8.86096 6.3999 9.60005V19.2C6.3999 35.8368 22.4343 42.7907 22.4343 42.7907C22.9125 43.059 23.4516 43.2 23.9999 43.2C24.5461 43.1989 25.0829 43.058 25.5593 42.7907H25.5655C25.5671 42.7907 41.5999 35.8368 41.5999 19.2V9.60005C41.6003 8.85901 41.3435 8.14081 40.8733 7.56804C40.4031 6.99527 39.7487 6.60343 39.0218 6.45942C39.0218 6.45942 31.3631 4.80005 23.9999 4.80005ZM23.9999 11.2C26.6479 11.2 28.7999 13.352 28.7999 16V19.2H30.3999C31.2831 19.2 31.9999 19.9168 31.9999 20.8V28.8C31.9999 29.6832 31.2831 30.4 30.3999 30.4H17.5999C16.7167 30.4 15.9999 29.6832 15.9999 28.8V20.8C15.9999 19.9168 16.7167 19.2 17.5999 19.2H19.1999V16C19.1999 13.352 21.3519 11.2 23.9999 11.2ZM23.9999 14.4C23.1183 14.4 22.3999 15.1184 22.3999 16V19.2H25.5999V16C25.5999 15.1184 24.8815 14.4 23.9999 14.4Z" fill="white"/>
</svg>
