<svg width="48" height="48" viewBox="0 0 48 48" fill="none" xmlns="http://www.w3.org/2000/svg">
<path d="M24 4.80005C13.4151 4.80005 4.80005 13.4151 4.80005 24C4.80005 34.585 13.4151 43.2 24 43.2C34.585 43.2 43.2 34.585 43.2 24C43.2 13.4151 34.585 4.80005 24 4.80005ZM24 8.00005C32.8556 8.00005 40 15.1445 40 24C40 26.9274 39.2058 29.6585 37.8407 32.0157L31.3344 27.3188C31.2031 24.7083 29.6186 23.2161 26.1063 22.4782L24.0032 22.0313L20.8938 19.7875C20.8938 19.7854 20.8938 19.7835 20.8938 19.7813C20.8938 18.3893 22.1599 17.5032 24.0719 17.5032C25.9199 17.5032 27.2599 18.4631 27.4375 19.9063H31.0313C30.9321 17.0903 28.7824 15.0322 25.6 14.525V11.2H22.4V14.5344C20.2074 14.8818 18.5739 15.9473 17.7219 17.4969L12.0313 13.3907C14.9595 10.0884 19.2254 8.00005 24 8.00005ZM10.1594 15.9844L35.9688 34.6094C33.0406 37.9117 28.7747 40 24 40C15.1445 40 8.00005 32.8556 8.00005 24C8.00005 21.0727 8.79426 18.3416 10.1594 15.9844ZM16.6407 28.0563C16.7623 31.0355 18.9392 33.0456 22.4 33.5V36.8H25.6V33.4938C26.5392 33.3674 27.3736 33.1236 28.1032 32.7844L24.8594 30.4438C24.6354 30.471 24.4026 30.4875 24.1594 30.4875C22.0074 30.4875 20.5151 29.5379 20.3375 28.0563H16.6407Z" fill="white"/>
</svg>
