<svg width="48" height="48" viewBox="0 0 48 48" fill="none" xmlns="http://www.w3.org/2000/svg">
<path d="M10.4511 31.1696C10.0191 31.1696 9.60313 31.3296 9.28313 31.6496C8.65913 32.2736 8.65913 33.2816 9.28313 33.9056C9.90713 34.5296 10.9311 34.5296 11.5551 33.9056C11.8591 33.5856 12.0191 33.1856 12.0191 32.7856C12.0191 32.3696 11.8591 31.9536 11.5551 31.6496C11.2671 31.3456 10.8671 31.1856 10.4511 31.1696ZM4.80313 17.6016C4.37878 17.6016 3.97181 17.7702 3.67175 18.0702C3.3717 18.3703 3.20313 18.7772 3.20312 19.2016C3.20313 19.6259 3.3717 20.0329 3.67175 20.333C3.97181 20.633 4.37878 20.8016 4.80313 20.8016C5.22747 20.8016 5.63444 20.633 5.9345 20.333C6.23455 20.0329 6.40312 19.6259 6.40312 19.2016C6.40312 18.7772 6.23455 18.3703 5.9345 18.0702C5.63444 17.7702 5.22747 17.6016 4.80313 17.6016ZM19.2031 41.6016C19.2031 43.3616 20.6271 44.8016 22.4031 44.8016C22.4031 45.6816 23.1231 46.4016 24.0031 46.4016C24.8831 46.4016 25.6031 45.6816 25.6031 44.8016C27.3631 44.8016 28.8031 43.3616 28.8031 41.6016V40.0016H19.2031V41.6016ZM9.29913 4.49758C8.67513 5.12158 8.67513 6.12958 9.29913 6.75358C9.92313 7.37758 10.9311 7.37758 11.5551 6.75358C12.1791 6.12958 12.1791 5.12158 11.5551 4.49758C11.2671 4.19358 10.8671 4.03358 10.4511 4.01758C10.0191 4.01758 9.60313 4.19358 9.29913 4.49758ZM37.6031 4.01758C37.1711 4.01758 36.7551 4.19358 36.4511 4.49758C35.8271 5.12158 35.8271 6.12958 36.4511 6.75358C37.0751 7.37758 38.0831 7.37758 38.7071 6.75358C39.3311 6.12958 39.3311 5.12158 38.7071 4.49758C38.4191 4.19358 38.0191 4.03358 37.6031 4.01758ZM43.2031 17.6016C42.7788 17.6016 42.3718 17.7702 42.0718 18.0702C41.7717 18.3703 41.6031 18.7772 41.6031 19.2016C41.6031 19.6259 41.7717 20.0329 42.0718 20.333C42.3718 20.633 42.7788 20.8016 43.2031 20.8016C43.6275 20.8016 44.0344 20.633 44.3345 20.333C44.6346 20.0329 44.8031 19.6259 44.8031 19.2016C44.8031 18.7772 44.6346 18.3703 44.3345 18.0702C44.0344 17.7702 43.6275 17.6016 43.2031 17.6016ZM37.6031 31.1856C37.1711 31.1696 36.7551 31.3456 36.4511 31.6496C35.8111 32.2736 35.8111 33.2816 36.4351 33.9056C36.4351 33.9056 36.4351 33.9056 36.4511 33.9056C37.0751 34.5296 38.0831 34.5296 38.7071 33.9056C39.3311 33.2816 39.3311 32.2736 38.7071 31.6496C38.4191 31.3456 38.0191 31.1856 37.6031 31.1856ZM24.0031 4.80158C16.0511 4.80158 9.60313 11.2496 9.60313 19.2016C9.60313 27.2016 16.0031 30.4016 19.2031 36.8016H28.8031C32.0031 30.4016 38.4031 27.2016 38.4031 19.2016C38.4031 11.2496 31.9551 4.80158 24.0031 4.80158ZM25.6031 26.5616V28.8016H22.4031V26.5776C22.1951 26.5296 22.0031 26.4816 21.8271 26.4176C20.5151 25.9856 19.6511 25.1536 19.3791 23.9856C19.3151 23.7456 19.2831 23.4896 19.2831 23.2336H22.0191C22.0671 23.9056 22.6271 24.3856 23.5071 24.5136C23.6831 24.5616 23.8911 24.5776 24.0991 24.5776C24.6271 24.5776 25.0751 24.4336 25.3951 24.2096C25.5551 24.0976 25.6831 23.9696 25.7631 23.8096C25.8431 23.6656 25.8911 23.4896 25.8911 23.3136C25.8911 23.1536 25.8591 23.0096 25.7951 22.8976C25.7311 22.7696 25.6351 22.6576 25.4911 22.5616C25.3471 22.4656 25.1711 22.3856 24.9311 22.3056C24.7071 22.2256 24.4351 22.1616 24.1151 22.0976L24.0031 22.0816L22.6271 21.7936C21.8911 21.6496 21.2831 21.4256 20.8031 21.0896C19.9391 20.5296 19.5071 19.6496 19.5071 18.5136C19.5071 17.4736 19.9071 16.6096 20.5951 16.0016C20.6591 15.9216 20.7231 15.8736 20.8031 15.8256C21.2351 15.4736 21.7791 15.2176 22.4031 15.0576V12.8016H25.6031V15.0736C25.9551 15.1696 26.2911 15.2976 26.5951 15.4576C26.8831 15.6016 27.1551 15.7936 27.3951 16.0016C27.9071 16.4336 28.2591 17.0096 28.4191 17.6656C28.4671 17.8896 28.4991 18.1296 28.4991 18.3696H25.8591C25.7951 17.5856 25.0431 17.0256 24.0351 17.0256H24.0031C23.0111 17.0416 22.3551 17.5216 22.3551 18.2576C22.3551 18.8496 22.8351 19.2176 24.0031 19.4416C24.0191 19.4576 24.0351 19.4576 24.0511 19.4576L25.5071 19.7456C27.7311 20.1776 28.7231 21.1856 28.7231 22.9776C28.7231 24.8496 27.5711 26.1136 25.6031 26.5616Z" fill="white"/>
</svg>
