<svg width="48" height="48" viewBox="0 0 48 48" fill="none" xmlns="http://www.w3.org/2000/svg">
<path d="M6.39995 8C4.63195 8 3.19995 9.432 3.19995 11.2V36.8C3.19995 38.568 4.63195 40 6.39995 40H7.99995C7.99995 40.8832 8.71675 41.6 9.59995 41.6H11.2C12.0832 41.6 12.8 40.8832 12.8 40H35.1999C35.1999 40.8832 35.9167 41.6 36.7999 41.6H38.3999C39.2831 41.6 40 40.8832 40 40H41.5999C43.368 40 44.7999 38.568 44.7999 36.8V11.2C44.7999 9.432 43.368 8 41.5999 8H6.39995ZM27.1999 14.4C32.5023 14.4 36.7999 18.6976 36.7999 24C36.7999 29.3024 32.5023 33.6 27.1999 33.6C21.8976 33.6 17.6 29.3024 17.6 24C17.6 18.6976 21.8976 14.4 27.1999 14.4ZM6.39995 19.2L11.2 24L6.39995 28.8V19.2ZM27.1999 19.2C25.9269 19.2 24.706 19.7057 23.8058 20.6059C22.9057 21.5061 22.4 22.727 22.4 24C22.4 25.273 22.9057 26.4939 23.8058 27.3941C24.706 28.2943 25.9269 28.8 27.1999 28.8C28.473 28.8 29.6939 28.2943 30.5941 27.3941C31.4942 26.4939 31.9999 25.273 32 24C31.9999 22.727 31.4942 21.5061 30.5941 20.6059C29.6939 19.7057 28.473 19.2 27.1999 19.2Z" fill="white"/>
</svg>
