<svg width="48" height="48" viewBox="0 0 48 48" fill="none" xmlns="http://www.w3.org/2000/svg">
<path d="M4.016 25.6H17.6C20.256 25.6 22.4 23.456 22.4 20.8V6.81605C22.4 5.69605 21.504 4.80005 20.384 4.80005H2.016C0.896 4.80005 0 5.69605 0 6.81605V21.584C0 23.808 1.792 25.6 4.016 25.6ZM7.12 8.43205H15.28C15.84 8.43205 16.288 8.89605 16.288 9.45605C16.288 10.016 15.84 10.48 15.28 10.48H7.12C6.56 10.48 6.112 10.016 6.112 9.45605C6.112 8.89605 6.56 8.43205 7.12 8.43205ZM8 29.6288C7.1152 29.6288 6.4 30.344 6.4 31.2288V38.3441C6.4 41.9025 9.2976 44.8 12.856 44.8H40V36.768H43.52C44.032 36.656 44.48 36.32 44.672 35.808C44.928 35.216 44.784 34.5281 44.336 34.0641L39.664 29.408C39.36 29.008 38.88 28.768 38.368 28.784C37.888 28.784 37.424 29.008 37.136 29.408H37.12L32.464 34.0641C32.016 34.5281 31.872 35.216 32.128 35.808C32.32 36.32 32.768 36.656 33.28 36.768H36.8V41.6H12.856C11.0608 41.6 9.6 40.1392 9.6 38.3441V31.2288C9.6 30.344 8.8848 29.6288 8 29.6288ZM42.88 9.92005C42.88 7.09285 40.5872 4.80005 37.76 4.80005C34.9328 4.80005 32.64 7.09285 32.64 9.92005C32.64 12.7472 34.9328 15.04 37.76 15.04C40.5872 15.04 42.88 12.7472 42.88 9.92005ZM37.76 17.6C32.816 17.6 28.672 21.04 27.728 25.6H47.792C46.848 21.04 42.704 17.6 37.76 17.6Z" fill="white"/>
</svg>
