<svg width="16" height="16" viewBox="0 0 16 16" fill="none" xmlns="http://www.w3.org/2000/svg">
<path fill-rule="evenodd" clip-rule="evenodd" d="M15.6959 0.445446C16.1435 0.987579 16.0917 1.81162 15.5801 2.28598L9.41817 8L15.5801 13.714C16.0917 14.1884 16.1435 15.0124 15.6959 15.5546C15.2483 16.0967 14.4708 16.1516 13.9592 15.6773L6.73866 8.98162C6.47157 8.73394 6.31836 8.37612 6.31836 8C6.31836 7.62388 6.47157 7.26606 6.73866 7.01838L13.9592 0.322743C14.4708 -0.151624 15.2483 -0.0966879 15.6959 0.445446Z" fill="white"/>
<path fill-rule="evenodd" clip-rule="evenodd" d="M0.304571 0.445446C-0.143039 0.987579 -0.0912018 1.81162 0.420353 2.28598L6.58231 8L0.420353 13.714C-0.0912018 14.1884 -0.143039 15.0124 0.304571 15.5546C0.752181 16.0967 1.52974 16.1516 2.04129 15.6773L9.26183 8.98162C9.52892 8.73394 9.68213 8.37612 9.68213 8C9.68213 7.62388 9.52892 7.26606 9.26183 7.01838L2.04129 0.322743C1.52974 -0.151624 0.752181 -0.0966879 0.304571 0.445446Z" fill="white"/>
</svg>
