<svg width="16" height="16" viewBox="0 0 16 16" fill="none" xmlns="http://www.w3.org/2000/svg">
<path d="M6.40104 1.05938C6.27817 1.05957 6.15913 1.10217 6.06404 1.17998C5.96896 1.2578 5.90365 1.36606 5.87916 1.48646L5.62291 2.66667H3.2C2.61066 2.66667 2.13333 3.144 2.13333 3.73334V10.1333H1.6C1.52932 10.1323 1.45916 10.1454 1.39357 10.1717C1.32799 10.1981 1.2683 10.2372 1.21797 10.2868C1.16764 10.3365 1.12767 10.3956 1.10039 10.4608C1.07311 10.526 1.05907 10.596 1.05907 10.6667C1.05907 10.7373 1.07311 10.8073 1.10039 10.8725C1.12767 10.9377 1.16764 10.9969 1.21797 11.0465C1.2683 11.0961 1.32799 11.1352 1.39357 11.1616C1.45916 11.1879 1.52932 11.201 1.6 11.2H3.76666L3.2125 13.7531C3.19483 13.8225 3.19131 13.8948 3.20216 13.9655C3.213 14.0363 3.23798 14.1042 3.27562 14.1651C3.31325 14.226 3.36276 14.2787 3.42121 14.3201C3.47965 14.3615 3.54582 14.3906 3.61578 14.4059C3.68574 14.4211 3.75805 14.4222 3.82841 14.4089C3.89877 14.3956 3.96573 14.3682 4.0253 14.3285C4.08488 14.2888 4.13584 14.2375 4.17516 14.1776C4.21448 14.1178 4.24135 14.0507 4.25416 13.9802L4.85833 11.2H7.46666V12.8C7.46566 12.8707 7.47872 12.9408 7.50507 13.0064C7.53143 13.072 7.57055 13.1317 7.62018 13.182C7.6698 13.2324 7.72893 13.2723 7.79414 13.2996C7.85934 13.3269 7.92932 13.3409 8 13.3409C8.07068 13.3409 8.14065 13.3269 8.20586 13.2996C8.27106 13.2723 8.33019 13.2324 8.37982 13.182C8.42944 13.1317 8.46856 13.072 8.49492 13.0064C8.52127 12.9408 8.53433 12.8707 8.53333 12.8V11.2H11.1417L11.7458 13.9802C11.7586 14.0507 11.7855 14.1178 11.8248 14.1776C11.8642 14.2375 11.9151 14.2888 11.9747 14.3285C12.0343 14.3682 12.1012 14.3956 12.1716 14.4089C12.2419 14.4222 12.3143 14.4211 12.3842 14.4059C12.4542 14.3906 12.5203 14.3615 12.5788 14.3201C12.6372 14.2787 12.6867 14.226 12.7244 14.1651C12.762 14.1042 12.787 14.0363 12.7978 13.9655C12.8087 13.8948 12.8052 13.8225 12.7875 13.7531L12.2333 11.2H14.4C14.4707 11.201 14.5408 11.1879 14.6064 11.1616C14.672 11.1352 14.7317 11.0961 14.782 11.0465C14.8324 10.9969 14.8723 10.9377 14.8996 10.8725C14.9269 10.8073 14.9409 10.7373 14.9409 10.6667C14.9409 10.596 14.9269 10.526 14.8996 10.4608C14.8723 10.3956 14.8324 10.3365 14.782 10.2868C14.7317 10.2372 14.672 10.1981 14.6064 10.1717C14.5408 10.1454 14.4707 10.1323 14.4 10.1333H13.8667V3.73334C13.8667 3.144 13.3893 2.66667 12.8 2.66667H10.3771L10.1208 1.48646C10.0958 1.36339 10.0282 1.25308 9.92992 1.17495C9.8316 1.09683 9.70886 1.0559 9.58333 1.05938C9.50432 1.06165 9.42681 1.08145 9.35639 1.11734C9.28598 1.15324 9.22442 1.20434 9.17617 1.26694C9.12792 1.32955 9.09419 1.40209 9.07741 1.47933C9.06063 1.55657 9.06123 1.63657 9.07916 1.71354L9.28541 2.66667H6.71458L6.92083 1.71354C6.93902 1.6353 6.9393 1.55395 6.92165 1.47558C6.904 1.39721 6.86888 1.32384 6.8189 1.26094C6.76893 1.19805 6.70539 1.14725 6.63303 1.11235C6.56068 1.07745 6.48137 1.05934 6.40104 1.05938ZM11.4667 3.73334C11.9088 3.73334 12.2667 4.0912 12.2667 4.53334C12.2667 4.97547 11.9088 5.33334 11.4667 5.33334C11.0245 5.33334 10.6667 4.97547 10.6667 4.53334C10.6667 4.0912 11.0245 3.73334 11.4667 3.73334ZM5.86666 5.88021C6.20446 5.88021 6.5424 6.0088 6.8 6.26667L7.45208 6.91875L8.61666 8.08334C8.84173 8.3084 9.20514 8.30632 9.4302 8.08125C9.6558 7.85619 9.6558 7.49019 9.4302 7.26459L9.37708 7.21146C9.9577 6.83398 10.7264 6.84387 11.3 7.27396L12.2667 8V9.06667H3.73333V7.46667L4.93333 6.26667C5.1912 6.0088 5.52886 5.88021 5.86666 5.88021Z" fill="#B2B6BD"/>
</svg>
