<svg width="16" height="12" viewBox="0 0 16 12" fill="none" xmlns="http://www.w3.org/2000/svg">
<path d="M2.66666 0.133331C2.07733 0.133331 1.6 0.610665 1.6 1.2V2.8V3.86666H11.7333H14.4V2.26666C14.4 1.67733 13.9227 1.2 13.3333 1.2H6.50625L6.17708 0.65104C5.98455 0.329973 5.63743 0.133331 5.2625 0.133331H2.66666ZM1.33437 4.93333C0.79624 4.93333 0.410882 5.45461 0.568748 5.96875L2.15208 11.1135C2.29021 11.561 2.70361 11.8667 3.17187 11.8667H8H12.8281C13.2964 11.8667 13.7098 11.561 13.8479 11.1135L15.4312 5.96875C15.5891 5.45461 15.2038 4.93333 14.6656 4.93333H8H1.33437Z" fill="#BDBDBD"/>
</svg>
