<svg width="13" height="16" viewBox="0 0 13 16" fill="none" xmlns="http://www.w3.org/2000/svg">
<mask id="mask0" mask-type="alpha" maskUnits="userSpaceOnUse" x="0" y="0" width="13" height="9">
<path d="M0 6.70959L8.47816 6.77803C8.47816 6.77803 10.3494 7.01576 11.9478 8.41963C12.0387 8.49887 12.3944 8.41963 12.3944 8.41963L12.3512 0L0 0.0144079V6.70959Z" fill="white"/>
</mask>
<g mask="url(#mask0)">
<path fill-rule="evenodd" clip-rule="evenodd" d="M10.5934 1.89643C9.5848 1.06618 8.19714 0.650146 6.43037 0.650146C4.06837 0.650146 3.02109 0.650146 2.02875 0.650146V1.26518C2.02875 1.26518 4.41776 1.26518 6.34932 1.26518C7.85135 1.26518 9.2111 1.57496 10.0414 2.29175C10.8716 3.00944 11.5011 4.07743 11.5011 5.39576C11.5011 6.66816 10.9563 7.61098 10.0927 8.32417C9.22911 9.03736 7.68926 9.35163 6.14761 9.35163C4.3079 9.35163 1.18408 9.35163 1.18408 9.35163V9.96667C1.18408 9.96667 5.41011 9.96577 6.18183 9.96577C8.04135 9.96577 9.49385 9.56145 10.5393 8.7546C11.5848 7.94686 12.1071 6.81134 12.1071 5.34623C12.1071 3.87752 11.6028 2.72759 10.5934 1.89643Z" fill="#1C1E1D"/>
<path fill-rule="evenodd" clip-rule="evenodd" d="M10.2206 2.78795C9.59297 2.31159 8.87167 1.92798 6.83115 1.92798C4.63034 1.92888 4.36109 1.92798 3.43628 1.92798V2.52771C3.43628 2.52771 4.95541 2.5079 6.7555 2.52771C8.49526 2.54572 9.13371 2.74203 9.71904 3.17516C10.4682 3.72897 10.9329 4.41244 10.9329 5.36877C10.9329 6.29088 10.461 6.94374 9.70823 7.49754C8.93831 8.06485 7.76136 8.07116 7.28229 8.08196C7.10129 8.08647 4.76181 8.08196 4.76181 8.08196V8.68169C4.76181 8.68169 5.92615 8.6979 6.64564 8.68079C8.29715 8.64387 9.27689 8.54572 10.1891 7.86765C11.0455 7.2328 11.4984 6.39444 11.4984 5.33275C11.4984 3.93248 10.7978 3.22649 10.2206 2.78795Z" fill="#1C1E1D"/>
<path fill-rule="evenodd" clip-rule="evenodd" d="M9.91704 3.57946C9.44608 3.28409 9.03276 3.08508 7.08318 3.08508C5.10209 3.08508 5.4758 3.08508 4.64284 3.08508V3.4795C4.64284 3.4795 5.39566 3.4795 7.01565 3.4795C8.7428 3.4795 9.39746 3.78657 9.59557 3.90814C9.98368 4.14587 10.4952 4.53308 10.4952 5.32191C10.4952 5.82619 10.1971 6.45924 9.75675 6.70778C9.35513 6.9338 8.62123 7.13641 7.32812 7.13641C7.16513 7.13641 -0.643066 7.13641 -0.643066 7.13641V7.53083C-0.643066 7.53083 6.70948 7.53083 7.35783 7.53083C8.91659 7.53083 9.45149 7.35793 10.0008 7.05447C10.5519 6.751 10.9193 6.12696 10.9193 5.32552C10.9193 4.43042 10.4195 3.89373 9.91704 3.57946Z" fill="#1C1E1D"/>
</g>
<path fill-rule="evenodd" clip-rule="evenodd" d="M11.4688 7.93066C10.4603 7.0995 9.07173 6.68437 7.30586 6.68437C4.94296 6.68437 5.35448 6.68347 4.36124 6.68347V7.29851C4.36124 7.29851 5.29235 7.29851 7.22391 7.29851C8.72594 7.29851 10.0866 7.60828 10.9168 8.32508C11.7471 9.04277 12.3756 10.1108 12.3756 11.43C12.3756 12.7015 11.8317 13.6443 10.9682 14.3575C10.1046 15.0707 8.56385 15.385 7.0222 15.385C5.18339 15.385 2.05957 15.385 2.05957 15.385V16C2.05957 16 6.28469 15.9991 7.05732 15.9991C8.91684 15.9991 10.3684 15.5957 11.4139 14.7879C12.4594 13.9811 12.9826 12.8447 12.9826 11.3805C12.9826 9.91085 12.4783 8.76092 11.4688 7.93066Z" fill="#1C1E1D"/>
<path fill-rule="evenodd" clip-rule="evenodd" d="M11.0958 8.82128C10.4682 8.34582 9.74687 7.9613 7.70635 7.9613C5.50464 7.9622 4.01612 7.9613 3.09131 7.9613V8.56103C3.09131 8.56103 5.82971 8.54122 7.63071 8.56103C9.37046 8.57904 10.008 8.77535 10.5933 9.20849C11.3434 9.76319 11.8081 10.4458 11.8081 11.4021C11.8081 12.3242 11.3362 12.9771 10.5834 13.5318C9.81351 14.0982 8.63656 14.1054 8.15659 14.1162C7.9756 14.1198 5.63611 14.1162 5.63611 14.1162V14.715C5.63611 14.715 6.80045 14.7312 7.52084 14.715C9.17145 14.6772 10.1521 14.579 11.0643 13.9019C11.9198 13.2661 12.3727 12.4278 12.3727 11.3661C12.3727 9.96671 11.673 9.25982 11.0958 8.82128Z" fill="#1C1E1D"/>
<path fill-rule="evenodd" clip-rule="evenodd" d="M4.0791 10.8563H8.40418V10.5214H4.0791V10.8563Z" fill="#1C1E1D"/>
<path fill-rule="evenodd" clip-rule="evenodd" d="M5.86304 12.0279H8.37902V11.7397H5.86304V12.0279Z" fill="#1C1E1D"/>
<path fill-rule="evenodd" clip-rule="evenodd" d="M2.05957 10.8563H3.34098V10.5214H2.05957V10.8563Z" fill="#1C1E1D"/>
<path fill-rule="evenodd" clip-rule="evenodd" d="M1.26074 12.0513H5.15268V11.7163H1.26074V12.0513Z" fill="#1C1E1D"/>
<path fill-rule="evenodd" clip-rule="evenodd" d="M2.21973 3.45345H3.73616V3.177H2.21973V3.45345Z" fill="#1C1E1D"/>
<path fill-rule="evenodd" clip-rule="evenodd" d="M1.16357 5.69562H4.63678V5.37415H1.16357V5.69562Z" fill="#1C1E1D"/>
<path fill-rule="evenodd" clip-rule="evenodd" d="M1.26074 14.6736H4.92306V14.272H1.26074V14.6736Z" fill="#1C1E1D"/>
<path fill-rule="evenodd" clip-rule="evenodd" d="M0.347656 15.9756H1.26346V15.3939H0.347656V15.9756Z" fill="#1C1E1D"/>
<path fill-rule="evenodd" clip-rule="evenodd" d="M2.63672 4.71405H8.38728V4.39258H2.63672V4.71405Z" fill="#1C1E1D"/>
<path fill-rule="evenodd" clip-rule="evenodd" d="M5.51196 5.69562H8.27828V5.37415H5.51196V5.69562Z" fill="#1C1E1D"/>
<path fill-rule="evenodd" clip-rule="evenodd" d="M10.7925 9.67306C10.3207 9.38761 9.90734 9.1958 7.95867 9.1958C5.97758 9.1958 5.68132 9.1958 4.84926 9.1958V9.57671C4.84926 9.57671 6.27024 9.57671 7.89023 9.57671C9.61738 9.57671 10.2729 9.87297 10.4711 9.99094C10.8583 10.2206 11.3706 10.5934 11.3706 11.3552C11.3706 11.8424 11.0726 12.4529 10.6313 12.6924C10.2297 12.9112 9.49582 13.1067 8.20271 13.1067C8.03972 13.1067 0.232422 13.1067 0.232422 13.1067V13.4876C0.232422 13.4876 7.58497 13.4867 8.23242 13.4867C9.79208 13.4867 10.327 13.3201 10.8763 13.0274C11.4265 12.7338 11.7939 12.1314 11.7939 11.3579C11.7939 10.4943 11.295 9.97653 10.7925 9.67306Z" fill="#1C1E1D"/>
</svg>
