<svg width="64" height="64" viewBox="0 0 64 64" fill="none" xmlns="http://www.w3.org/2000/svg">
<path d="M14.9334 6.3999C12.5761 6.3999 10.6667 8.30924 10.6667 10.6666V55.4666C10.6667 57.8239 12.5761 59.7332 14.9334 59.7332H49.0667C51.4241 59.7332 53.3334 57.8239 53.3334 55.4666V22.3999C53.3334 21.8346 53.1095 21.2926 52.7084 20.8916L38.8417 7.0249C38.4407 6.62384 37.8987 6.3999 37.3334 6.3999H14.9334ZM36.2667 10.4624L49.2709 23.4666H38.4001C37.2225 23.4666 36.2667 22.5108 36.2667 21.3332V10.4624ZM30.0334 26.2416C31.1918 26.2416 32.163 26.7311 32.7667 27.6207C33.2531 28.3333 33.4876 29.2494 33.4876 30.4249C33.4876 32.4409 32.5851 35.6059 31.1792 38.9957C31.8576 40.5339 32.6491 42.057 33.4917 43.4416C35.4501 43.4544 38.1424 43.6326 40.3376 44.3707C43.497 45.4289 44.1626 47.17 44.1626 48.4457C44.1604 50.2825 42.6706 52.2666 39.3959 52.2666C36.9746 52.2666 34.2755 49.81 31.9459 46.4457C30.2478 46.5012 28.6348 46.667 27.1542 46.9166C24.4406 51.356 21.3654 54.8291 19.0209 54.8291C16.4438 54.8291 15.5751 52.2834 15.5751 51.1207C15.5751 47.4663 20.197 45.3059 25.3042 44.2499C26.2685 42.6051 27.202 40.8267 28.0084 39.0624C26.8201 36.1163 26.0876 33.2355 26.0876 31.0957C26.0876 29.7389 26.3663 28.6399 26.9167 27.8207C27.6037 26.801 28.7129 26.2416 30.0334 26.2416ZM30.0292 29.2249C29.5663 29.2249 29.4621 29.3829 29.3917 29.4874C29.2723 29.6645 29.0709 30.1101 29.0709 31.0957C29.0709 32.188 29.2891 33.4658 29.6667 34.8332C30.2257 33.0882 30.5449 31.5002 30.5001 30.2416C30.4659 29.2261 30.2212 29.2249 30.0292 29.2249ZM35.6376 46.5166C37.0093 48.1976 38.3507 49.2791 39.3917 49.2791C40.6205 49.2791 41.1709 48.8597 41.1709 48.4416C41.173 48.049 40.4734 47.5605 39.3876 47.1957C38.402 46.8651 37.1138 46.636 35.6376 46.5166ZM22.9292 47.9457C20.2306 48.8567 18.5584 50.0414 18.5584 51.1166C18.5605 51.1166 18.6797 51.8416 19.0167 51.8416C19.8274 51.784 21.3036 50.2369 22.9292 47.9457Z" fill="url(#paint0_linear)"/>
<defs>
<linearGradient id="paint0_linear" x1="10.6667" y1="6.3999" x2="58.8515" y2="11.9662" gradientUnits="userSpaceOnUse">
<stop stop-color="#F2BF10"/>
<stop offset="1" stop-color="#F57777"/>
</linearGradient>
</defs>
</svg>
