<svg width="16" height="16" viewBox="0 0 16 16" fill="none" xmlns="http://www.w3.org/2000/svg">
<path d="M8 3.2C5.83097 3.2 2.88113 3.76505 2.87812 3.76562H2.87708C2.24336 3.89528 1.74844 4.40005 1.62917 5.0375L1.62708 5.03958L0.578124 10.7625L0.579166 10.7635C0.549869 10.9044 0.533333 11.0504 0.533333 11.2C0.533333 12.3781 1.48853 13.3333 2.66667 13.3333C3.29941 13.3333 3.86139 13.0522 4.25208 12.6146L4.25937 12.6187L5.06667 11.7333H8H10.9333L11.7406 12.6187L11.7479 12.6146C12.1386 13.0522 12.7006 13.3333 13.3333 13.3333C14.5115 13.3333 15.4667 12.3781 15.4667 11.2C15.4667 11.0504 15.4501 10.9044 15.4208 10.7635L15.4219 10.7625L14.3729 5.03958L14.3708 5.0375C14.2515 4.39972 13.7561 3.89496 13.1219 3.76562C13.1215 3.76555 13.1212 3.76569 13.1208 3.76562C13.1184 3.76505 10.169 3.2 8 3.2ZM4.26667 6.4C4.56107 6.4 4.8 6.63893 4.8 6.93333V7.46666H5.33333C5.62773 7.46666 5.86667 7.7056 5.86667 8C5.86667 8.2944 5.62773 8.53333 5.33333 8.53333H4.8V9.06666C4.8 9.36106 4.56107 9.6 4.26667 9.6C3.97227 9.6 3.73333 9.36106 3.73333 9.06666V8.53333H3.2C2.9056 8.53333 2.66667 8.2944 2.66667 8C2.66667 7.7056 2.9056 7.46666 3.2 7.46666H3.73333V6.93333C3.73333 6.63893 3.97227 6.4 4.26667 6.4ZM11.7333 6.4C12.0277 6.4 12.2667 6.63893 12.2667 6.93333C12.2667 7.22773 12.0277 7.46666 11.7333 7.46666C11.4389 7.46666 11.2 7.22773 11.2 6.93333C11.2 6.63893 11.4389 6.4 11.7333 6.4ZM10.6667 7.46666C10.9611 7.46666 11.2 7.7056 11.2 8C11.2 8.2944 10.9611 8.53333 10.6667 8.53333C10.3723 8.53333 10.1333 8.2944 10.1333 8C10.1333 7.7056 10.3723 7.46666 10.6667 7.46666ZM12.8 7.46666C13.0944 7.46666 13.3333 7.7056 13.3333 8C13.3333 8.2944 13.0944 8.53333 12.8 8.53333C12.5056 8.53333 12.2667 8.2944 12.2667 8C12.2667 7.7056 12.5056 7.46666 12.8 7.46666ZM11.7333 8.53333C12.0277 8.53333 12.2667 8.77226 12.2667 9.06666C12.2667 9.36106 12.0277 9.6 11.7333 9.6C11.4389 9.6 11.2 9.36106 11.2 9.06666C11.2 8.77226 11.4389 8.53333 11.7333 8.53333Z" fill="#B2B6BD"/>
</svg>
