<svg width="16" height="16" viewBox="0 0 16 16" fill="none">
<path d="M13.8562 1.5948C13.8363 1.59542 13.8165 1.59716 13.7968 1.6H10.6666C10.596 1.59901 10.5258 1.61206 10.4602 1.63842C10.3946 1.66477 10.3349 1.7039 10.2846 1.75352C10.2343 1.80314 10.1943 1.86227 10.167 1.92748C10.1398 1.99268 10.1257 2.06266 10.1257 2.13334C10.1257 2.20402 10.1398 2.27399 10.167 2.3392C10.1943 2.4044 10.2343 2.46353 10.2846 2.51316C10.3349 2.56278 10.3946 2.60191 10.4602 2.62826C10.5258 2.65461 10.596 2.66767 10.6666 2.66667H12.5791L7.08955 8.15625C7.03836 8.2054 6.9975 8.26426 6.96935 8.3294C6.94119 8.39453 6.92632 8.46463 6.9256 8.53559C6.92488 8.60654 6.93832 8.67693 6.96514 8.74262C6.99196 8.80832 7.03162 8.868 7.0818 8.91818C7.13197 8.96835 7.19166 9.00801 7.25735 9.03483C7.32304 9.06165 7.39343 9.0751 7.46439 9.07437C7.53534 9.07365 7.60544 9.05878 7.67057 9.03063C7.73571 9.00247 7.79457 8.96161 7.84372 8.91042L13.3333 3.42084V5.33334C13.3323 5.40401 13.3454 5.47418 13.3717 5.53976C13.3981 5.60534 13.4372 5.66503 13.4868 5.71537C13.5364 5.7657 13.5956 5.80566 13.6608 5.83294C13.726 5.86022 13.796 5.87427 13.8666 5.87427C13.9373 5.87427 14.0073 5.86022 14.0725 5.83294C14.1377 5.80566 14.1968 5.7657 14.2465 5.71537C14.2961 5.66503 14.3352 5.60534 14.3616 5.53976C14.3879 5.47418 14.401 5.40401 14.4 5.33334V2.20105C14.4106 2.12426 14.4043 2.04608 14.3817 1.97195C14.359 1.89783 14.3204 1.82953 14.2687 1.77182C14.2169 1.71412 14.1532 1.66838 14.082 1.63781C14.0107 1.60724 13.9337 1.59256 13.8562 1.5948ZM3.19997 3.73334C2.617 3.73334 2.1333 4.21704 2.1333 4.8V12.8C2.1333 13.383 2.617 13.8667 3.19997 13.8667H11.2C11.7829 13.8667 12.2666 13.383 12.2666 12.8V7.46667V6.09167L11.2 7.15834V8.53334V12.8H3.19997V4.8H7.46663H8.5333H8.84163L9.9083 3.73334H8.5333H7.46663H3.19997Z" fill="#111" fill-opacity="1"/>
</svg>
