<svg width="16" height="16" viewBox="0 0 16 16" fill="none" xmlns="http://www.w3.org/2000/svg">
<path d="M12.1751 1.60001C11.9022 1.60001 11.6292 1.70424 11.4209 1.91251L10.1334 3.20001L12.8001 5.86667L14.0876 4.57917C14.5041 4.16264 14.5041 3.48737 14.0876 3.07084L12.9293 1.91251C12.721 1.70424 12.448 1.60001 12.1751 1.60001ZM9.06676 4.26667L2.80531 10.5281C2.80531 10.5281 3.29478 10.4843 3.47718 10.6667C3.65958 10.8491 3.50943 12.0427 3.73343 12.2667C3.95743 12.4907 5.14351 12.333 5.31364 12.5031C5.48377 12.6733 5.47197 13.1948 5.47197 13.1948L11.7334 6.93334L9.06676 4.26667ZM2.13343 12.2667L1.63031 13.6917C1.61053 13.7479 1.60032 13.8071 1.6001 13.8667C1.6001 14.0081 1.65629 14.1438 1.75631 14.2438C1.85633 14.3438 1.99198 14.4 2.13343 14.4C2.19304 14.3998 2.2522 14.3896 2.30843 14.3698C2.31017 14.3691 2.31191 14.3684 2.31364 14.3677L2.32718 14.3635C2.32823 14.3629 2.32927 14.3622 2.33031 14.3615L3.73343 13.8667L2.93343 13.0667L2.13343 12.2667Z" fill="#09162E"/>
</svg>
