<svg width="24" height="24" viewBox="0 0 24 24" fill="none" xmlns="http://www.w3.org/2000/svg">
<path d="M4.79995 3.19995C3.91595 3.19995 3.19995 3.91595 3.19995 4.79995V19.2C3.19995 20.084 3.91595 20.7999 4.79995 20.7999H19.2C20.084 20.7999 20.7999 20.084 20.7999 19.2V4.79995C20.7999 3.91595 20.084 3.19995 19.2 3.19995H4.79995ZM4.79995 4.79995H19.2V9.59995H16.5921C15.58 8.15028 13.9021 7.19995 12 7.19995C10.0978 7.19995 8.41987 8.15028 7.40776 9.59995H4.79995V4.79995ZM16.8 6.39995V7.99995H18.4V6.39995H16.8ZM12 8.79995C14.2056 8.79995 16 10.5944 16 12.8C16 15.0056 14.2056 16.8 12 16.8C9.79435 16.8 7.99995 15.0056 7.99995 12.8C7.99995 10.5944 9.79435 8.79995 12 8.79995ZM12 10.4C11.6296 10.4 11.2839 10.491 10.9703 10.6406C11.1119 10.7846 11.2 10.9816 11.2 11.2C11.2 11.6416 10.8416 12 10.4 12C10.1816 12 9.98458 11.9119 9.84058 11.7703C9.69098 12.0839 9.59995 12.4296 9.59995 12.8C9.59995 14.1256 10.6744 15.2 12 15.2C13.3256 15.2 14.4 14.1256 14.4 12.8C14.4 11.4744 13.3256 10.4 12 10.4Z" fill="#09162E" fill-opacity="0.5"/>
</svg>
