<svg width="106" height="32" viewBox="0 0 106 32" fill="none">
<g clip-path="url(#clip0)">
<path d="M39.8831 21.815L35.7982 10.9059H33.6863L38.9401 24.3783H40.8249L46.1287 10.9059H43.9923L39.8831 21.815Z" fill="#09162E"/>
<path d="M47.5366 12.7907H55.4534V15.8211L50.5776 16.6334C49.5866 16.8011 48.7726 17.0843 48.1354 17.4828C47.5426 17.8378 47.0563 18.3458 46.7275 18.9534C46.4221 19.5475 46.2668 20.2074 46.2752 20.8754C46.263 21.5728 46.4649 22.2574 46.8538 22.8365C47.2523 23.4178 47.7989 23.8819 48.437 24.1808C49.1517 24.5176 49.9343 24.6854 50.7242 24.6714C51.4654 24.6823 52.2028 24.5618 52.902 24.3156C53.5323 24.0906 54.119 23.7587 54.6368 23.3345C54.9504 23.0768 55.2251 22.7757 55.4534 22.4405V24.3783H57.3382V10.9059H48.2799L47.5366 12.7907ZM55.4534 18.5468C55.4635 19.3306 55.264 20.1029 54.8758 20.784C54.4923 21.4499 53.9371 22 53.2672 22.3767C52.5792 22.7703 51.7747 22.9671 50.8537 22.9671C50.0998 22.9671 49.484 22.7576 49.0062 22.3385C48.7811 22.153 48.6001 21.9198 48.4764 21.6557C48.3526 21.3916 48.2891 21.1033 48.2905 20.8116C48.2819 20.2123 48.5109 19.6339 48.9276 19.203C49.3523 18.7507 50.052 18.4406 51.0268 18.2728L55.4502 17.5359L55.4534 18.5468Z" fill="#09162E"/>
<path d="M68.001 11.2552C67.2149 10.8139 66.3263 10.5885 65.425 10.6022C64.4847 10.5828 63.5599 10.8453 62.7706 11.3562C62.2831 11.6739 61.8682 12.0902 61.5514 12.5783V10.9059H59.6741V24.3783H61.5599V16.3605C61.5599 15.5556 61.7109 14.8644 62.0122 14.2868C62.2917 13.7309 62.7258 13.268 63.2629 12.9542C63.8223 12.6382 64.4559 12.4776 65.0981 12.4891C65.7359 12.4765 66.3658 12.6372 66.9199 12.9542C67.449 13.2661 67.8773 13.7245 68.1519 14.274C68.4447 14.8403 68.5914 15.5358 68.5925 16.3605V24.3783H70.4773V15.631C70.4896 14.7299 70.2597 13.8421 69.8111 13.0604C69.3802 12.3077 68.7551 11.6844 68.001 11.2552Z" fill="#09162E"/>
<path d="M76.6101 12.6356C77.4469 12.1463 78.4016 11.8944 79.3707 11.9072C80.2699 11.8926 81.1557 12.1227 81.9339 12.573C82.7115 13.0372 83.3483 13.7032 83.7776 14.5001L84.7333 13.9693C84.4251 13.3584 84.0027 12.8124 83.4885 12.3606C82.9488 11.8847 82.3269 11.5103 81.6539 11.2552C80.7403 10.9214 79.7637 10.7934 78.7947 10.8804C77.8261 10.9674 76.888 11.2672 76.0485 11.7585C75.0528 12.3591 74.232 13.2108 73.6688 14.2284C73.0827 15.2682 72.7899 16.4496 72.7899 17.7727C72.7712 19.0063 73.0741 20.2234 73.6688 21.3043C74.2293 22.3241 75.0485 23.1782 76.0443 23.7805C77.0491 24.3858 78.2021 24.699 79.3749 24.6851C80.1547 24.6916 80.928 24.5488 81.6539 24.2646C82.3285 24.0011 82.9499 23.618 83.4885 23.1338C83.9963 22.6822 84.4176 22.1427 84.7333 21.5411L83.7776 21.0378C83.3429 21.8238 82.7104 22.4827 81.9424 22.9491C81.1675 23.4077 80.28 23.6425 79.3792 23.6276C78.4107 23.6463 77.4555 23.3964 76.6197 22.9055C75.7845 22.4147 75.1013 21.7021 74.6459 20.8467C74.1595 19.9661 73.9168 18.9396 73.9173 17.7674C73.9179 16.5951 74.1611 15.5687 74.6459 14.6881C75.1019 13.8382 75.7813 13.1286 76.6101 12.6356Z" fill="#09162E"/>
<path d="M87.4111 12.1621H95.6804V16.0005L90.553 16.8627C89.4975 17.0305 88.6554 17.3236 88.0266 17.7419C87.3983 18.1603 86.946 18.6504 86.6698 19.2125C86.3972 19.7545 86.2554 20.3526 86.2548 20.9592C86.241 21.6529 86.4431 22.3337 86.8335 22.9076C87.2228 23.4731 87.7562 23.9243 88.378 24.2148C89.0586 24.5324 89.802 24.6915 90.553 24.6798C91.354 24.6901 92.1492 24.5361 92.889 24.2275C93.5578 23.9471 94.1695 23.5465 94.6938 23.0457C95.0852 22.6756 95.409 22.2397 95.6495 21.7577V24.3783H96.8058V11.1565H87.8122L87.4111 12.1621ZM95.6804 18.396C95.6858 19.2933 95.4698 20.1781 95.0516 20.9719C94.6463 21.7535 94.0442 22.4162 93.305 22.8949C92.5594 23.3812 91.6746 23.624 90.6506 23.6233C89.73 23.6233 88.9594 23.3805 88.338 22.8949C87.7162 22.4093 87.4063 21.7474 87.4079 20.9093C87.409 20.2029 87.689 19.5254 88.1871 19.0246C88.7066 18.4717 89.6196 18.0863 90.9263 17.8683L95.6772 17.0804L95.6804 18.396Z" fill="#09162E"/>
<path d="M104.621 23.4226C104.42 23.4396 104.252 23.4481 104.118 23.4481C103.482 23.4481 103.008 23.3267 102.698 23.0839C102.403 22.8623 102.19 22.5478 102.095 22.1909C102.007 21.8714 101.961 21.5421 101.957 21.2109V12.1621H104.823V11.1565H101.957V8.0401H100.826V11.1565H98.712L98.3125 12.1621H100.826V21.2109C100.826 22.3173 101.102 23.1466 101.655 23.6987C102.208 24.2509 102.996 24.5273 104.018 24.528C104.119 24.528 104.283 24.5195 104.508 24.5025C104.708 24.4886 104.906 24.4531 105.099 24.3963V23.3663C104.982 23.3897 104.822 23.4067 104.621 23.4226Z" fill="#09162E"/>
<path d="M29.4516 10.8794L29.0694 0L20.2977 7.9424L15.2477 8.47328L10.1934 7.9424L1.42602 0L1.04483 10.8687L0 18.2388V18.2633L2.6365 24.3156L2.64818 24.3411L9.56272 29.2764L11.7607 32.0053H18.7347L20.9327 29.2764L27.8473 24.3411L30.4848 18.2972L30.4954 18.2717L29.4516 10.8794ZM29.2531 10.891L23.1646 10.7742L28.891 0.580816L29.2531 10.891ZM25.696 22.9055L25.6885 22.9002L25.6779 22.914L21.8756 21.6197L24.8115 18.3026L25.696 22.9055ZM25.0451 18.4607L29.922 18.4555L25.8446 22.622L25.0451 18.4607ZM24.8073 18.2633V18.2845L20.5483 19.3941L23.0138 10.8815L23.0818 10.9176L24.8253 18.2633H24.8073ZM23.3058 10.9792L28.9813 11.0854L24.9145 17.7748L23.3058 10.9792ZM28.5916 0.702923L23.0298 10.6086L20.4814 8.04219L28.5916 0.702923ZM20.3094 8.14203L22.8503 10.7052L15.5238 8.64848L20.3094 8.14203ZM22.81 10.9027L20.4931 18.8866L15.5121 8.85451L22.81 10.9027ZM20.5313 19.4079L18.4926 21.8097L15.4133 9.10299L20.5313 19.4079ZM18.3822 22.0625L20.87 27.3492L17.5784 26.8279L18.3822 22.0625ZM17.4043 26.6516L15.6045 26.6198L18.0509 22.8291L17.4043 26.6516ZM18.3312 21.9435L18.3461 21.9934L15.373 26.6092L15.2668 26.6198L15.1542 26.6092L12.1451 21.9913L15.2477 9.26859L18.3312 21.9435ZM14.9334 26.6155L13.0975 26.6474L12.453 22.811L14.9334 26.6155ZM11.9986 21.8097L9.96939 19.4058L5.68389 18.2824V18.2611H5.67013L7.40939 10.9155L7.47733 10.8794L9.96939 19.4058L15.0821 9.10613L11.9986 21.8097ZM11.9635 21.9106L9.52661 26.933L8.82901 21.711L11.9635 21.9106ZM5.67541 18.3004L8.61136 21.6175L4.81322 22.914L4.8026 22.9002L4.79517 22.9055L5.67541 18.3004ZM4.64227 22.6199L0.569136 18.4555L5.44608 18.4607L4.64227 22.6199ZM5.57669 17.7706L1.51097 11.0811L7.1864 10.9749L5.57669 17.7706ZM10.0002 18.8844L7.69179 10.9006L14.9833 8.85451L10.0002 18.8844ZM14.9716 8.64848L7.64507 10.7052L10.1934 8.14203L14.9716 8.64848ZM10.0108 8.04219L7.46245 10.6086L1.90384 0.702923L10.0108 8.04219ZM1.24339 10.8858L1.60547 0.577627L7.33077 10.7711L1.24233 10.8879L1.24339 10.8858ZM0.204931 18.2388L1.22746 10.9972L5.64571 18.2633L0.212364 18.2548L0.204931 18.2388ZM0.311113 18.4735L4.70385 22.9629L2.77772 24.1309L0.311113 18.4735ZM2.91257 24.2774L4.75801 23.1625L9.13163 28.7201L2.91257 24.2774ZM4.94701 23.0807L8.6464 21.8204L9.38965 27.3875L9.55637 28.9345L4.94701 23.0807ZM9.54469 27.363L12.1174 22.0603L12.9181 26.8279L9.54469 27.363ZM12.8597 27.0445L14.8155 29.4867L9.75493 28.9558L9.60416 27.5553L12.8597 27.0445ZM9.72411 29.1533L15.0778 29.7118L11.8276 31.7547L9.72411 29.1533ZM12.1345 31.8004L15.2477 29.8435L18.361 31.8004H12.1345ZM18.6636 31.7547L15.4133 29.7118L20.7713 29.1533L18.6636 31.7547ZM20.7405 28.9558L15.6798 29.4867L17.6357 27.0445L20.8913 27.5605L20.7405 28.9558ZM18.5266 21.9106L21.6611 21.711L20.9465 27.0562L18.5266 21.9106ZM21.11 27.3875H21.1047L21.8479 21.8204L25.5505 23.0807L20.9422 28.9345L21.11 27.3875ZM21.3744 28.7105L25.7406 23.1625L27.586 24.2774L21.3744 28.7105ZM27.7209 24.1266L25.7958 22.9586L30.1875 18.4756L27.7209 24.1266ZM30.283 18.2548L24.8466 18.2633L29.2637 11.0004L30.2862 18.241L30.283 18.2548Z" fill="#09162E"/>
</g>
<defs>
<clipPath id="clip0">
<rect width="105.6" height="32" fill="white"/>
</clipPath>
</defs>
</svg>
