<svg width="127" height="134" viewBox="0 0 127 134" fill="none" xmlns="http://www.w3.org/2000/svg">
<path d="M122.653 45.5497L121.061 0L84.531 33.2533L63.4999 35.4759L42.4512 33.2533L5.93875 0L4.35124 45.5053L0 76.3624V76.4646L10.9798 101.805L11.0285 101.911L39.8245 122.575L48.9781 134H78.0219L87.1755 122.575L115.972 101.911L126.956 76.6069L127 76.5001L122.653 45.5497ZM121.826 45.5986L96.4705 45.1096L120.318 2.43176L121.826 45.5986ZM107.013 95.901L106.981 95.8787L106.937 95.9365L91.1021 90.5173L103.329 76.6292L107.013 95.901ZM104.302 77.2915L124.612 77.2694L107.632 94.714L104.302 77.2915ZM103.311 76.4646V76.5535L85.5747 81.1992L95.8424 45.5587L96.1256 45.7098L103.386 76.4646H103.311ZM97.0585 45.9677L120.694 46.4123L103.758 74.4197L97.0585 45.9677ZM119.071 2.943L95.9088 44.4163L85.296 33.671L119.071 2.943ZM84.5797 34.0891L95.1614 44.8207L64.6497 36.2095L84.5797 34.0891ZM94.9935 45.6475L85.3446 79.0743L64.6011 37.0721L94.9935 45.6475ZM85.5039 81.257L77.0137 91.3129L64.1898 38.1124L85.5039 81.257ZM76.5537 92.3711L86.9145 114.506L73.2063 112.323L76.5537 92.3711ZM72.4811 111.585L64.9858 111.452L75.174 95.5808L72.4811 111.585ZM76.3414 91.8732L76.4034 92.0822L64.0218 111.407L63.5796 111.452L63.1107 111.407L50.5789 92.0732L63.4999 38.8057L76.3414 91.8732ZM62.191 111.434L54.5455 111.567L51.8613 95.5053L62.191 111.434ZM49.9687 91.3129L41.5181 81.2481L23.6709 76.5448V76.4557H23.6136L30.8568 45.7009L31.1398 45.5497L41.5181 81.2481L62.8102 38.1256L49.9687 91.3129ZM49.8228 91.7354L39.6742 112.763L36.769 90.8996L49.8228 91.7354ZM23.6356 76.6203L35.8625 90.5084L20.045 95.9365L20.0007 95.8787L19.9698 95.901L23.6356 76.6203ZM19.333 94.705L2.3702 77.2694L22.6805 77.2915L19.333 94.705ZM23.2245 74.4018L6.29251 46.3945L29.9282 45.9499L23.2245 74.4018ZM41.6465 79.0654L32.0329 45.6388L62.3989 37.0721L41.6465 79.0654ZM62.3502 36.2095L31.8383 44.8207L42.4512 34.0891L62.3502 36.2095ZM41.6907 33.671L31.0778 44.4163L7.92866 2.943L41.6907 33.671ZM5.17816 45.5765L6.68606 2.41841L30.5294 45.0964L5.17374 45.5855L5.17816 45.5765ZM0.853446 76.3624L5.11184 46.0432L23.5119 76.4646L0.884402 76.4291L0.853446 76.3624ZM1.29565 77.3449L19.5895 96.141L11.568 101.031L1.29565 77.3449ZM12.1296 101.645L19.815 96.9768L38.0292 120.245L12.1296 101.645ZM20.6021 96.6345L36.0085 91.3576L39.1038 114.666L39.7981 121.143L20.6021 96.6345ZM39.7495 114.564L50.4638 92.3622L53.7981 112.323L39.7495 114.564ZM53.5549 113.23L61.7001 123.455L40.625 121.232L39.9971 115.368L53.5549 113.23ZM40.4966 122.059L62.7925 124.397L49.2566 132.951L40.4966 122.059ZM50.5347 133.142L63.4999 124.949L76.4653 133.142H50.5347ZM77.7256 132.951L64.1898 124.397L86.5031 122.059L77.7256 132.951ZM86.375 121.232L65.2996 123.455L73.4451 113.23L87.0029 115.39L86.375 121.232ZM77.1552 91.7354L90.2088 90.8996L87.2328 113.279L77.1552 91.7354ZM87.9138 114.666H87.8918L90.9871 91.3576L106.407 96.6345L87.2152 121.143L87.9138 114.666ZM89.015 120.205L107.198 96.9768L114.884 101.645L89.015 120.205ZM115.445 101.013L107.428 96.1232L125.718 77.3538L115.445 101.013ZM126.116 76.4291L103.475 76.4646L121.87 46.0566L126.129 76.3713L126.116 76.4291Z" fill="#09162E"/>
</svg>
