<svg width="106" height="33" viewBox="0 0 106 33" fill="none" xmlns="http://www.w3.org/2000/svg">
<path d="M39.8828 21.8149L35.798 10.9058H33.686L38.9399 24.3781H40.8246L46.1284 10.9058H43.9921L39.8828 21.8149Z" fill="white"/>
<path d="M47.5366 12.7905H55.4534V15.8209L50.5776 16.6332C49.5866 16.801 48.7726 17.0842 48.1354 17.4827C47.5426 17.8376 47.0563 18.3456 46.7275 18.9533C46.4221 19.5474 46.2668 20.2073 46.2752 20.8752C46.263 21.5727 46.4649 22.2572 46.8538 22.8364C47.2523 23.4176 47.7989 23.8817 48.437 24.1806C49.1517 24.5174 49.9343 24.6853 50.7242 24.6712C51.4654 24.6821 52.2028 24.5617 52.902 24.3155C53.5323 24.0904 54.119 23.7585 54.6368 23.3343C54.9504 23.0766 55.2251 22.7756 55.4534 22.4403V24.3781H57.3382V10.9058H48.2799L47.5366 12.7905ZM55.4534 18.5466C55.4635 19.3305 55.264 20.1028 54.8758 20.7838C54.4923 21.4497 53.9371 21.9999 53.2672 22.3766C52.5792 22.7702 51.7747 22.967 50.8537 22.967C50.0998 22.967 49.484 22.7574 49.0062 22.3383C48.7811 22.1529 48.6001 21.9196 48.4764 21.6555C48.3526 21.3914 48.2891 21.1031 48.2905 20.8115C48.2819 20.2121 48.5109 19.6337 48.9276 19.2028C49.3523 18.7505 50.052 18.4404 51.0268 18.2726L55.4502 17.5358L55.4534 18.5466Z" fill="white"/>
<path d="M68.001 11.2551C67.2149 10.8137 66.3263 10.5884 65.425 10.6021C64.4847 10.5826 63.5599 10.8452 62.7706 11.356C62.2831 11.6738 61.8682 12.0901 61.5514 12.5781V10.9058H59.6741V24.3781H61.5599V16.3603C61.5599 15.5555 61.7109 14.8642 62.0122 14.2866C62.2917 13.7308 62.7258 13.2678 63.2629 12.954C63.8223 12.638 64.4559 12.4774 65.0981 12.489C65.7359 12.4763 66.3658 12.6371 66.9199 12.954C67.449 13.266 67.8773 13.7243 68.1519 14.2739C68.4447 14.8402 68.5914 15.5356 68.5925 16.3603V24.3781H70.4773V15.6309C70.4896 14.7298 70.2597 13.8419 69.8111 13.0602C69.3802 12.3075 68.7551 11.6842 68.001 11.2551Z" fill="white"/>
<path d="M76.6101 12.6357C77.4469 12.1463 78.4016 11.8945 79.3707 11.9073C80.2699 11.8926 81.1557 12.1228 81.9339 12.573C82.7115 13.0373 83.3483 13.7033 83.7776 14.5002L84.7333 13.9693C84.4251 13.3585 84.0027 12.8124 83.4885 12.3607C82.9488 11.8848 82.3269 11.5103 81.6539 11.2553C80.7403 10.9215 79.7637 10.7935 78.7947 10.8805C77.8261 10.9675 76.888 11.2673 76.0485 11.7586C75.0528 12.3591 74.232 13.2109 73.6688 14.2284C73.0827 15.2683 72.7899 16.4497 72.7899 17.7727C72.7712 19.0063 73.0741 20.2235 73.6688 21.3044C74.2293 22.3242 75.0485 23.1782 76.0443 23.7805C77.0491 24.3858 78.2021 24.6991 79.3749 24.6852C80.1547 24.6916 80.928 24.5489 81.6539 24.2647C82.3285 24.0012 82.9499 23.6181 83.4885 23.1339C83.9963 22.6823 84.4176 22.1427 84.7333 21.5412L83.7776 21.0379C83.3429 21.8239 82.7104 22.4828 81.9424 22.9491C81.1675 23.4077 80.28 23.6426 79.3792 23.6276C78.4107 23.6463 77.4555 23.3964 76.6197 22.9056C75.7845 22.4147 75.1013 21.7021 74.6459 20.8467C74.1595 19.9661 73.9168 18.9397 73.9173 17.7675C73.9179 16.5952 74.1611 15.5688 74.6459 14.6882C75.1019 13.8382 75.7813 13.1287 76.6101 12.6357Z" fill="white"/>
<path d="M87.4113 12.1623H95.6807V16.0007L90.5532 16.8629C89.4977 17.0307 88.6556 17.3238 88.0268 17.7421C87.3985 18.1605 86.9463 18.6507 86.67 19.2127C86.3975 19.7548 86.2556 20.3528 86.2551 20.9594C86.2412 21.6532 86.4433 22.334 86.8337 22.9078C87.2231 23.4733 87.7564 23.9245 88.3783 24.215C89.0588 24.5326 89.8023 24.6917 90.5532 24.68C91.3543 24.6903 92.1495 24.5364 92.8892 24.2277C93.558 23.9473 94.1697 23.5467 94.694 23.0459C95.0855 22.6758 95.4092 22.2399 95.6497 21.7579V24.3785H96.806V11.1567H87.8124L87.4113 12.1623ZM95.6807 18.3962C95.686 19.2935 95.47 20.1783 95.0519 20.9721C94.6465 21.7537 94.0444 22.4164 93.3052 22.8951C92.5596 23.3814 91.6748 23.6242 90.6508 23.6235C89.7303 23.6235 88.9596 23.3807 88.3383 22.8951C87.7164 22.4095 87.4065 21.7476 87.4081 20.9095C87.4092 20.2031 87.6892 19.5256 88.1873 19.0248C88.7068 18.4719 89.6199 18.0865 90.9265 17.8685L95.6775 17.0806L95.6807 18.3962Z" fill="white"/>
<path d="M104.621 23.4225C104.42 23.4396 104.252 23.448 104.118 23.448C103.482 23.448 103.008 23.3267 102.698 23.0838C102.403 22.8622 102.19 22.5477 102.095 22.1909C102.007 21.8713 101.961 21.542 101.957 21.2108V12.162H104.823V11.1565H101.957V8.04004H100.826V11.1565H98.712L98.3125 12.162H100.826V21.2108C100.826 22.3172 101.102 23.1465 101.655 23.6987C102.208 24.2508 102.996 24.5272 104.018 24.5279C104.119 24.5279 104.283 24.5195 104.508 24.5024C104.708 24.4886 104.906 24.453 105.099 24.3963V23.3663C104.982 23.3896 104.822 23.4067 104.621 23.4225Z" fill="white"/>
<path d="M29.4516 10.8794L29.0694 0L20.2977 7.9424L15.2477 8.47328L10.1934 7.9424L1.42602 0L1.04483 10.8687L0 18.2388V18.2633L2.6365 24.3156L2.64818 24.3411L9.56272 29.2764L11.7607 32.0053H18.7347L20.9327 29.2764L27.8473 24.3411L30.4848 18.2972L30.4954 18.2717L29.4516 10.8794ZM29.2531 10.891L23.1646 10.7742L28.891 0.580816L29.2531 10.891ZM25.696 22.9055L25.6885 22.9002L25.6779 22.914L21.8756 21.6197L24.8115 18.3026L25.696 22.9055ZM25.0451 18.4607L29.922 18.4555L25.8446 22.622L25.0451 18.4607ZM24.8073 18.2633V18.2845L20.5483 19.3941L23.0138 10.8815L23.0818 10.9176L24.8253 18.2633H24.8073ZM23.3058 10.9792L28.9813 11.0854L24.9145 17.7748L23.3058 10.9792ZM28.5916 0.702923L23.0298 10.6086L20.4814 8.04219L28.5916 0.702923ZM20.3094 8.14203L22.8503 10.7052L15.5238 8.64848L20.3094 8.14203ZM22.81 10.9027L20.4931 18.8866L15.5121 8.85451L22.81 10.9027ZM20.5313 19.4079L18.4926 21.8097L15.4133 9.10299L20.5313 19.4079ZM18.3822 22.0625L20.87 27.3492L17.5784 26.8279L18.3822 22.0625ZM17.4043 26.6516L15.6045 26.6198L18.0509 22.8291L17.4043 26.6516ZM18.3312 21.9435L18.3461 21.9934L15.373 26.6092L15.2668 26.6198L15.1542 26.6092L12.1451 21.9913L15.2477 9.26859L18.3312 21.9435ZM14.9334 26.6155L13.0975 26.6474L12.453 22.811L14.9334 26.6155ZM11.9986 21.8097L9.96939 19.4058L5.68389 18.2824V18.2611H5.67013L7.40939 10.9155L7.47733 10.8794L9.96939 19.4058L15.0821 9.10613L11.9986 21.8097ZM11.9635 21.9106L9.52661 26.933L8.82901 21.711L11.9635 21.9106ZM5.67541 18.3004L8.61136 21.6175L4.81322 22.914L4.8026 22.9002L4.79517 22.9055L5.67541 18.3004ZM4.64227 22.6199L0.569136 18.4555L5.44608 18.4607L4.64227 22.6199ZM5.57669 17.7706L1.51097 11.0811L7.1864 10.9749L5.57669 17.7706ZM10.0002 18.8844L7.69179 10.9006L14.9833 8.85451L10.0002 18.8844ZM14.9716 8.64848L7.64507 10.7052L10.1934 8.14203L14.9716 8.64848ZM10.0108 8.04219L7.46245 10.6086L1.90384 0.702923L10.0108 8.04219ZM1.24339 10.8858L1.60547 0.577627L7.33077 10.7711L1.24233 10.8879L1.24339 10.8858ZM0.204931 18.2388L1.22746 10.9972L5.64571 18.2633L0.212364 18.2548L0.204931 18.2388ZM0.311113 18.4735L4.70385 22.9629L2.77772 24.1309L0.311113 18.4735ZM2.91257 24.2774L4.75801 23.1625L9.13163 28.7201L2.91257 24.2774ZM4.94701 23.0807L8.6464 21.8204L9.38965 27.3875L9.55637 28.9345L4.94701 23.0807ZM9.54469 27.363L12.1174 22.0603L12.9181 26.8279L9.54469 27.363ZM12.8597 27.0445L14.8155 29.4867L9.75493 28.9558L9.60416 27.5553L12.8597 27.0445ZM9.72411 29.1533L15.0778 29.7118L11.8276 31.7547L9.72411 29.1533ZM12.1345 31.8004L15.2477 29.8435L18.361 31.8004H12.1345ZM18.6636 31.7547L15.4133 29.7118L20.7713 29.1533L18.6636 31.7547ZM20.7405 28.9558L15.6798 29.4867L17.6357 27.0445L20.8913 27.5605L20.7405 28.9558ZM18.5266 21.9106L21.6611 21.711L20.9465 27.0562L18.5266 21.9106ZM21.11 27.3875H21.1047L21.8479 21.8204L25.5505 23.0807L20.9422 28.9345L21.11 27.3875ZM21.3744 28.7105L25.7406 23.1625L27.586 24.2774L21.3744 28.7105ZM27.7209 24.1266L25.7958 22.9586L30.1875 18.4756L27.7209 24.1266ZM30.283 18.2548L24.8466 18.2633L29.2637 11.0004L30.2862 18.241L30.283 18.2548Z" fill="white"/>
</svg>
