<svg width="16" height="16" viewBox="0 0 16 16" fill="none" xmlns="http://www.w3.org/2000/svg">
<path fill-rule="evenodd" clip-rule="evenodd" d="M13.7069 9.56098C13.4279 9.73737 13.0993 9.75922 12.8496 9.61834C12.5323 9.43922 12.3579 9.01971 12.3579 8.43629V6.69073C12.3579 5.84781 12.0246 5.248 11.4673 5.08605C10.5229 4.81093 9.81268 5.96644 9.54576 6.40039L7.8802 9.10088V5.80019C7.86146 5.04078 7.61483 4.58654 7.14654 4.44956C6.83668 4.35902 6.37307 4.39532 5.92273 5.08449L2.19122 11.0763C1.69166 10.1279 1.43124 9.0719 1.43259 8C1.43259 4.39063 4.32507 1.45444 7.8802 1.45444C11.4353 1.45444 14.3274 4.39063 14.3274 8C14.3274 8.00624 14.329 8.01171 14.3294 8.01756C14.3294 8.0238 14.3282 8.02927 14.3286 8.03551C14.3621 8.73444 14.1358 9.29015 13.7069 9.56098ZM15.76 8.00039V7.98205L15.7596 7.9641C15.7397 3.56839 12.2131 0 7.8798 0C3.53522 0 0 3.58868 0 8C0 12.4109 3.53522 16 7.8802 16C9.87395 16 11.7768 15.2421 13.2375 13.8665C13.5278 13.5934 13.545 13.1333 13.2757 12.839C13.2123 12.7691 13.1356 12.7126 13.0501 12.6727C12.9646 12.6328 12.872 12.6104 12.7778 12.6068C12.6835 12.6032 12.5894 12.6184 12.5011 12.6516C12.4128 12.6847 12.332 12.7352 12.2634 12.8C11.0794 13.9212 9.51077 14.5459 7.8802 14.5456C5.97659 14.5456 4.2638 13.703 3.08254 12.3668L6.44761 6.96351V9.45444C6.44761 10.6509 6.91161 11.0377 7.30068 11.1508C7.69015 11.264 8.28527 11.1867 8.91005 10.1721L10.761 7.17151C10.8203 7.07473 10.8749 6.99122 10.9249 6.91902V8.43629C10.9249 9.55473 11.3729 10.4492 12.1538 10.8898C12.8578 11.287 13.7428 11.2511 14.464 10.7961C15.3381 10.2439 15.8092 9.22654 15.76 8.00039Z" fill="#17181B"/>
</svg>
