<svg width="24" height="24" viewBox="0 0 24 24" fill="none" xmlns="http://www.w3.org/2000/svg">
<path d="M11.9999 2.39999C9.68263 2.39999 7.54889 3.22411 5.88896 4.59531C5.79864 4.6699 5.72579 4.76342 5.67557 4.86925C5.62535 4.97509 5.59899 5.09066 5.59834 5.20781C5.59446 5.82329 5.14189 6.30764 4.54678 6.38124C4.43169 6.3955 4.32108 6.4346 4.2226 6.49585C4.12413 6.55709 4.04014 6.63901 3.97646 6.73593C2.98341 8.24688 2.3999 10.0579 2.3999 12C2.3999 15.3834 4.16004 18.3624 6.81084 20.0703C6.9313 20.1479 7.07039 20.1918 7.2136 20.1973C7.3568 20.2028 7.49885 20.1697 7.6249 20.1016C7.75134 20.0332 7.87166 20 7.9999 20C8.3891 20 8.69809 20.2681 8.77803 20.625C8.80931 20.7648 8.87758 20.8937 8.9757 20.9982C9.07383 21.1026 9.19821 21.1788 9.33584 21.2187C10.1786 21.462 11.0724 21.6 11.9999 21.6C17.2923 21.6 21.5999 17.2924 21.5999 12C21.5999 6.70762 17.2923 2.39999 11.9999 2.39999ZM11.9999 3.99999C12.0759 3.99999 12.1494 4.00884 12.2249 4.01093C12.8272 4.51429 13.3778 5.07785 13.8562 5.70156C14.0266 5.63916 14.2079 5.59999 14.3999 5.59999C15.2839 5.59999 15.9999 6.31599 15.9999 7.19999C15.9999 7.71999 15.7472 8.17674 15.364 8.46874C15.692 9.37194 15.8922 10.3336 15.9562 11.3344C16.9082 11.6528 17.5999 12.5408 17.5999 13.6C17.5999 14.9256 16.5255 16 15.1999 16C15.1975 16 15.1961 15.9984 15.1937 15.9984C14.5404 17.5584 13.516 18.9229 12.2343 19.9891C12.1556 19.9913 12.0791 20 11.9999 20C11.3039 20 10.6369 19.8807 9.98896 19.7109C9.57867 18.9727 8.89774 18.4 7.9999 18.4C7.79859 18.4 7.63953 18.4932 7.45615 18.5406C5.37958 17.0949 3.9999 14.7253 3.9999 12C3.9999 10.4067 4.47763 8.9365 5.27959 7.68906C6.15044 7.37185 6.75251 6.70087 6.9749 5.79062C8.35068 4.67616 10.0891 3.99999 11.9999 3.99999ZM10.3999 6.39999C9.5159 6.39999 8.7999 7.11599 8.7999 7.99999C8.7999 8.88399 9.5159 9.59999 10.3999 9.59999C10.6927 9.59999 10.9639 9.51492 11.1999 9.37812C10.7239 9.10052 10.3999 8.59039 10.3999 7.99999C10.3999 7.40959 10.7239 6.89947 11.1999 6.62187C10.9639 6.48507 10.6927 6.39999 10.3999 6.39999ZM7.9999 11.2C7.1159 11.2 6.3999 11.916 6.3999 12.8C6.3999 13.684 7.1159 14.4 7.9999 14.4C8.2927 14.4 8.5639 14.3149 8.7999 14.1781C8.3239 13.9005 7.9999 13.3904 7.9999 12.8C7.9999 12.2096 8.3239 11.6995 8.7999 11.4219C8.5639 11.2851 8.2927 11.2 7.9999 11.2Z" fill="#B6BAC1"/>
</svg>
