<svg width="16" height="16" viewBox="0 0 16 16" fill="none" >
<path d="M12.2667 1.06667C12.214 1.06695 12.1617 1.07502 12.1115 1.09062L7.32085 2.15208L7.31876 2.15521C7.20781 2.18724 7.11024 2.25442 7.04074 2.34665C6.97124 2.43888 6.93355 2.55118 6.93335 2.66667V8.53333C6.93335 9.12267 6.45601 9.6 5.86668 9.6H5.6021C5.6014 9.6 5.60071 9.6 5.60001 9.6C4.96349 9.6 4.35304 9.85285 3.90296 10.3029C3.45287 10.753 3.20001 11.3635 3.20001 12C3.20001 12.6365 3.45287 13.247 3.90296 13.6971C4.35304 14.1471 4.96349 14.4 5.60001 14.4C6.23653 14.4 6.84698 14.1471 7.29707 13.6971C7.74716 13.247 8.00001 12.6365 8.00001 12V5.22708L12.349 4.26042C12.4747 4.24079 12.5892 4.17688 12.6719 4.08023C12.7546 3.98358 12.8 3.86054 12.8 3.73333V1.6C12.8 1.45855 12.7438 1.32289 12.6438 1.22288C12.5438 1.12286 12.4081 1.06667 12.2667 1.06667Z" fill="#B2B6BD"/>
</svg>
