<svg width="16" height="16" viewBox="0 0 16 16" fill="none" xmlns="http://www.w3.org/2000/svg">
<path fill-rule="evenodd" clip-rule="evenodd" d="M2.84019 2.50091C2.59743 1.20097 3.59489 0 4.9173 0C6.08429 0 7.03031 0.946029 7.03031 2.11302V4.71804C7.32222 4.69744 7.61879 4.68688 7.91918 4.68688C8.2078 4.68688 8.49292 4.69663 8.7737 4.71566V2.11302C8.7737 0.946029 9.7197 0 10.8867 0C12.2091 0 13.2066 1.20097 12.9638 2.50091L12.392 5.56298C14.3545 6.41979 15.8384 7.90788 15.8384 9.77782V10.9091C15.8384 12.4468 14.8211 13.7343 13.3989 14.6034C11.9656 15.4793 10.0266 16 7.91918 16C5.81177 16 3.87279 15.4793 2.4395 14.6034C1.01731 13.7343 0 12.4468 0 10.9091V9.77782C0 7.91778 1.46869 6.43538 3.41462 5.57689L2.84019 2.50091ZM11.6592 5.96527L12.3284 2.38223C12.4968 1.48001 11.8046 0.646469 10.8867 0.646469C10.0768 0.646469 9.42015 1.30306 9.42015 2.11302V5.4281C9.20795 5.40089 8.99231 5.37933 8.7737 5.3637C8.49343 5.34365 8.20831 5.33335 7.91918 5.33335C7.61828 5.33335 7.32164 5.34451 7.03031 5.36621C6.8117 5.38249 6.59606 5.4047 6.38385 5.43257V2.11302C6.38385 1.30306 5.72725 0.646469 4.9173 0.646469C3.99947 0.646469 3.30718 1.48 3.47567 2.38223L4.14701 5.97716C2.0483 6.75673 0.646466 8.16725 0.646466 9.77782V10.9091C0.646466 13.3637 3.90258 15.3535 7.91918 15.3535C11.9358 15.3535 15.192 13.3637 15.192 10.9091V9.77782C15.192 8.15897 13.7758 6.74236 11.6592 5.96527Z" fill="#633001"/>
<path d="M15.1919 10.9092C15.1919 13.3638 11.9357 15.3536 7.91908 15.3536C3.90248 15.3536 0.646362 13.3638 0.646362 10.9092V9.77783H15.1919V10.9092Z" fill="#FEDC90"/>
<path fill-rule="evenodd" clip-rule="evenodd" d="M3.47556 2.38213C3.30708 1.4799 3.99936 0.646362 4.9172 0.646362C5.72715 0.646362 6.38375 1.30296 6.38375 2.11292V5.43247C6.87868 5.36746 7.39238 5.33324 7.91908 5.33324C8.43368 5.33324 8.93573 5.36589 9.42005 5.42799V2.11292C9.42005 1.30296 10.0767 0.646362 10.8866 0.646362C11.8045 0.646362 12.4967 1.4799 12.3282 2.38213L11.6591 5.96517C13.7757 6.74226 15.1919 8.15893 15.1919 9.77772C15.1919 12.2323 11.9357 14.2221 7.91908 14.2221C3.90248 14.2221 0.646362 12.2323 0.646362 9.77772C0.646362 8.16715 2.0482 6.75662 4.1469 5.97706L3.47556 2.38213Z" fill="#D1884F"/>
<path d="M5.89925 9.45465C5.89925 10.1241 5.53745 10.6668 5.09116 10.6668C4.64487 10.6668 4.28308 10.1241 4.28308 9.45465C4.28308 8.78523 4.64487 8.24255 5.09116 8.24255C5.53745 8.24255 5.89925 8.78523 5.89925 9.45465Z" fill="#633001"/>
<path d="M11.4749 9.45465C11.4749 10.1241 11.1131 10.6668 10.6668 10.6668C10.2206 10.6668 9.85876 10.1241 9.85876 9.45465C9.85876 8.78523 10.2206 8.24255 10.6668 8.24255C11.1131 8.24255 11.4749 8.78523 11.4749 9.45465Z" fill="#633001"/>
</svg>
