<svg width="16" height="16" viewBox="0 0 16 16" fill="none" xmlns="http://www.w3.org/2000/svg">
<path d="M13.3333 4.26666H11.6064C11.2192 4.26666 10.8875 3.98933 10.8192 3.608L10.712 3.01173C10.6203 2.50293 10.1787 2.13333 9.66187 2.13333H6.33814C5.82187 2.13333 5.37974 2.50293 5.28854 3.0112L5.18134 3.608C5.11307 3.98933 4.78134 4.26666 4.39414 4.26666H2.66667C2.07734 4.26666 1.60001 4.744 1.60001 5.33333V12.2667C1.60001 12.856 2.07734 13.3333 2.66667 13.3333H13.3333C13.9227 13.3333 14.4 12.856 14.4 12.2667V5.33333C14.4 4.744 13.9227 4.26666 13.3333 4.26666ZM8.00001 11.7333C6.23254 11.7333 4.80001 10.3008 4.80001 8.53333C4.80001 6.76586 6.23254 5.33333 8.00001 5.33333C9.76747 5.33333 11.2 6.76586 11.2 8.53333C11.2 10.3008 9.76747 11.7333 8.00001 11.7333ZM8.00001 10.6667C6.82187 10.6667 5.86667 9.71146 5.86667 8.53333C5.86667 7.3552 6.82187 6.4 8.00001 6.4C9.17814 6.4 10.1333 7.3552 10.1333 8.53333C10.1333 9.71146 9.17814 10.6667 8.00001 10.6667Z" fill="#B2B6BD"/>
</svg>
