<svg width="24" height="24" viewBox="0 0 24 24" fill="none" xmlns="http://www.w3.org/2000/svg">
<path d="M20.1233 3.18755C19.8633 3.19902 19.621 3.27477 19.4077 3.36099C19.2079 3.44136 18.4445 3.76878 17.2421 4.28442C16.0386 4.80052 14.4451 5.48467 12.7452 6.21567C9.34547 7.67768 5.52327 9.32338 3.56553 10.1657C3.49191 10.1973 3.23504 10.2794 2.9624 10.4922C2.68977 10.7051 2.3999 11.1461 2.3999 11.6375C2.3999 12.0338 2.58876 12.4275 2.82646 12.6625C3.06417 12.8976 3.3157 13.0137 3.53115 13.1016C4.31289 13.4206 6.73738 14.4127 7.19521 14.6C7.35634 15.0936 8.23389 17.7781 8.4374 18.436C8.57156 18.8701 8.69926 19.1421 8.86553 19.3579C8.94866 19.4658 9.0453 19.5603 9.1624 19.6344C9.20921 19.664 9.26053 19.6869 9.3124 19.7079L9.31553 19.7094C9.32748 19.7142 9.33778 19.7224 9.3499 19.7266C9.37277 19.7346 9.38806 19.7356 9.41865 19.7422C9.54051 19.7816 9.66354 19.8063 9.77334 19.8063C10.2415 19.8063 10.528 19.5485 10.528 19.5485L10.5452 19.536L12.953 17.4532L15.8733 20.2157C15.9145 20.2738 16.2979 20.8 17.1437 20.8C17.6458 20.8 18.0442 20.5481 18.2999 20.2797C18.5556 20.0114 18.715 19.7295 18.7827 19.375V19.3735C18.8461 19.0385 21.5374 5.22192 21.5374 5.22192L21.5327 5.24067C21.6115 4.88106 21.6321 4.54616 21.5452 4.21567C21.4583 3.88519 21.2292 3.56876 20.9452 3.39849C20.6612 3.22825 20.3834 3.17608 20.1233 3.18755ZM19.9733 4.85942C19.9695 4.88277 19.9762 4.87103 19.9702 4.89849L19.9687 4.90786L19.9671 4.91724C19.9671 4.91724 17.3091 18.5571 17.2108 19.0766C17.218 19.0374 17.1852 19.1154 17.1515 19.1625C17.1038 19.1297 17.0062 19.0875 17.0062 19.0875L16.9905 19.0704L13.0015 15.2969L10.1812 17.7344L11.0202 14.375C11.0202 14.375 16.2652 8.94573 16.5812 8.62973C16.8356 8.37694 16.889 8.28881 16.889 8.20161C16.889 8.08481 16.8281 8.00005 16.6921 8.00005C16.5697 8.00005 16.4051 8.11905 16.3171 8.17505C15.1706 8.90588 10.1374 11.8394 7.88115 13.1516C7.5226 13.0049 5.03163 11.9852 4.1874 11.6407C4.19379 11.6379 4.19169 11.6389 4.19834 11.636C6.1566 10.7935 9.97721 9.14778 13.3765 7.68599C15.0761 6.95509 16.6708 6.27042 17.8733 5.75474C19.0573 5.247 19.88 4.89756 19.9733 4.85942Z" fill="#09162E" fill-opacity="0.5"/>
</svg>
