<svg width="24" height="24" viewBox="0 0 24 24" fill="none" xmlns="http://www.w3.org/2000/svg">
<g opacity="0.5">
<path d="M12.0002 2.3999C8.31859 2.3999 4.48926 3.22959 4.48926 3.22959L4.48613 3.23271C4.12378 3.30525 3.7977 3.50098 3.56329 3.78666C3.32888 4.07234 3.20058 4.43036 3.2002 4.7999V9.5999C3.2002 17.9183 11.2174 21.3952 11.2174 21.3952C11.4565 21.5294 11.726 21.5999 12.0002 21.5999C12.2733 21.5993 12.5417 21.5289 12.7799 21.3952H12.783C12.7838 21.3952 20.8002 17.9183 20.8002 9.5999V4.7999C20.8004 4.42938 20.672 4.07028 20.4369 3.7839C20.2018 3.49751 19.8746 3.3016 19.5111 3.22959C19.5111 3.22959 15.6818 2.3999 12.0002 2.3999ZM11.0299 5.5999H12.9705L12.8096 12.7999H11.1908L11.0299 5.5999ZM12.0033 15.0483C12.6609 15.0483 13.0549 15.4022 13.0549 16.0062C13.0549 16.599 12.6609 16.9515 12.0033 16.9515C11.3409 16.9515 10.9439 16.599 10.9439 16.0062C10.9439 15.4022 11.3401 15.0483 12.0033 15.0483Z" fill="#FF0000"/>
</g>
</svg>
